<svg width="16" height="16" viewBox="0 0 16 16" fill="none" xmlns="http://www.w3.org/2000/svg">
<path d="M11.7089 0.6698L9.85738 0.666748C7.77727 0.666748 6.43301 2.08347 6.43301 4.27623V5.94045H4.57141C4.41054 5.94045 4.28027 6.07442 4.28027 6.23966V8.65092C4.28027 8.81617 4.41069 8.94998 4.57141 8.94998H6.43301V15.0344C6.43301 15.1996 6.56328 15.3334 6.72415 15.3334H9.15302C9.31388 15.3334 9.44415 15.1994 9.44415 15.0344V8.94998H11.6208C11.7817 8.94998 11.9119 8.81617 11.9119 8.65092L11.9128 6.23966C11.9128 6.16032 11.8821 6.08433 11.8276 6.02818C11.7731 5.97203 11.6988 5.94045 11.6215 5.94045H9.44415V4.52967C9.44415 3.8516 9.60145 3.50737 10.4613 3.50737L11.7086 3.50691C11.8693 3.50691 11.9996 3.37295 11.9996 3.20785V0.968861C11.9996 0.80392 11.8695 0.670105 11.7089 0.6698Z" fill="white" fill-opacity="0.5"/>
</svg>
