<svg width="16" height="16" viewBox="0 0 16 16" fill="none" xmlns="http://www.w3.org/2000/svg">
<path d="M14.6533 5.25329C14.6221 4.54484 14.5075 4.05778 14.3434 3.63574C14.1741 3.18776 13.9136 2.78668 13.5724 2.45326C13.2389 2.11465 12.8352 1.85154 12.3924 1.68488C11.9679 1.52077 11.4834 1.4062 10.775 1.37497C10.0612 1.34109 9.83465 1.33325 8.0244 1.33325C6.21416 1.33325 5.98757 1.34109 5.27648 1.37232C4.56803 1.40356 4.08097 1.51822 3.65904 1.68224C3.21095 1.85154 2.80987 2.11201 2.47645 2.45326C2.13785 2.78668 1.87484 3.19041 1.70808 3.6332C1.54396 4.05778 1.4294 4.54219 1.39816 5.25064C1.36428 5.96438 1.35645 6.19097 1.35645 8.00122C1.35645 9.81147 1.36428 10.0381 1.39552 10.7492C1.42675 11.4576 1.54142 11.9447 1.70553 12.3667C1.87484 12.8147 2.13785 13.2158 2.47645 13.5492C2.80987 13.8878 3.2136 14.1509 3.65639 14.3176C4.08097 14.4817 4.56538 14.5962 5.27393 14.6275C5.98493 14.6588 6.21161 14.6665 8.02186 14.6665C9.83211 14.6665 10.0587 14.6588 10.7698 14.6275C11.4782 14.5962 11.9653 14.4817 12.3872 14.3176C13.2833 13.9711 13.9917 13.2627 14.3382 12.3667C14.5022 11.9421 14.6169 11.4576 14.6481 10.7492C14.6793 10.0381 14.6872 9.81147 14.6872 8.00122C14.6872 6.19097 14.6845 5.96438 14.6533 5.25329ZM13.4526 10.6971C13.4239 11.3482 13.3145 11.6999 13.2234 11.9343C12.9993 12.5151 12.5383 12.9761 11.9575 13.2002C11.723 13.2914 11.3689 13.4007 10.7202 13.4293C10.017 13.4607 9.80606 13.4684 8.02705 13.4684C6.24804 13.4684 6.03448 13.4607 5.33376 13.4293C4.68259 13.4007 4.33096 13.2914 4.09654 13.2002C3.80748 13.0934 3.54437 12.9241 3.33081 12.7027C3.10941 12.4865 2.94011 12.226 2.83327 11.9369C2.74211 11.7025 2.63273 11.3482 2.60414 10.6997C2.57281 9.99644 2.56507 9.78542 2.56507 8.00641C2.56507 6.2274 2.57281 6.01383 2.60414 5.31322C2.63273 4.66205 2.74211 4.31042 2.83327 4.076C2.94011 3.78684 3.10941 3.52382 3.33345 3.31016C3.54956 3.08876 3.81003 2.91946 4.09918 2.81273C4.33361 2.72156 4.68788 2.61219 5.3364 2.5835C6.03967 2.55226 6.25068 2.54443 8.02959 2.54443C9.81125 2.54443 10.0222 2.55226 10.7229 2.5835C11.3741 2.61219 11.7257 2.72156 11.9601 2.81273C12.2492 2.91946 12.5123 3.08876 12.7258 3.31016C12.9472 3.52637 13.1165 3.78684 13.2234 4.076C13.3145 4.31042 13.4239 4.66459 13.4526 5.31322C13.4838 6.01648 13.4917 6.2274 13.4917 8.00641C13.4917 9.78542 13.4838 9.9938 13.4526 10.6971Z" fill="white" fill-opacity="0.5"/>
<path d="M8.0244 4.57607C6.13347 4.57607 4.59925 6.11019 4.59925 8.00123C4.59925 9.89226 6.13347 11.4264 8.0244 11.4264C9.91544 11.4264 11.4496 9.89226 11.4496 8.00123C11.4496 6.11019 9.91544 4.57607 8.0244 4.57607ZM8.0244 10.223C6.79766 10.223 5.80259 9.22807 5.80259 8.00123C5.80259 6.77438 6.79766 5.77941 8.0244 5.77941C9.25125 5.77941 10.2462 6.77438 10.2462 8.00123C10.2462 9.22807 9.25125 10.223 8.0244 10.223Z" fill="white" fill-opacity="0.5"/>
<path d="M12.3847 4.44065C12.3847 4.88223 12.0267 5.24027 11.585 5.24027C11.1434 5.24027 10.7854 4.88223 10.7854 4.44065C10.7854 3.99898 11.1434 3.64103 11.585 3.64103C12.0267 3.64103 12.3847 3.99898 12.3847 4.44065Z" fill="white" fill-opacity="0.5"/>
</svg>
