<svg width="33" height="33" viewBox="0 0 33 33" fill="none" xmlns="http://www.w3.org/2000/svg">
<rect width="33" height="33" rx="4" fill="white" fill-opacity="0.25"/>
<g clip-path="url(#clip0_12918_23004)">
<path d="M16.505 9.62988C17.6282 9.62988 18.3616 9.63261 18.7051 9.63806C19.0486 9.64351 19.4439 9.65715 19.891 9.67896C20.2945 9.70076 20.6162 9.74166 20.8561 9.80164C21.096 9.86161 21.2923 9.91886 21.4449 9.97339C21.6412 10.0497 21.813 10.137 21.9602 10.2351C22.1074 10.3333 22.2574 10.4532 22.41 10.595C22.5518 10.7367 22.6718 10.884 22.7699 11.0366C22.868 11.1893 22.9553 11.3638 23.0316 11.5601C23.0861 11.7018 23.1434 11.8927 23.2034 12.1326C23.2633 12.3725 23.3042 12.6996 23.326 13.114C23.337 13.5502 23.3479 13.9428 23.3588 14.2917C23.3697 14.6407 23.3751 15.3768 23.3751 16.5C23.3751 17.6123 23.3697 18.3429 23.3588 18.6919C23.3479 19.0409 23.337 19.4334 23.326 19.8696C23.3042 20.284 23.2633 20.6112 23.2034 20.8511C23.1434 21.091 23.0861 21.2818 23.0316 21.4236C22.9553 21.6199 22.868 21.7944 22.7699 21.947C22.6718 22.0997 22.5518 22.2469 22.41 22.3887C22.2574 22.5413 22.1074 22.6667 21.9602 22.7649C21.813 22.863 21.6412 22.9503 21.4449 23.0266C21.2923 23.0811 21.096 23.1384 20.8561 23.1984C20.6162 23.2583 20.2945 23.2938 19.891 23.3047C19.4439 23.3265 19.0486 23.3401 18.7051 23.3456C18.3616 23.351 17.6282 23.3538 16.505 23.3538C15.3927 23.3538 14.6621 23.351 14.3131 23.3456C13.9642 23.3401 13.5661 23.3265 13.119 23.3047C12.7155 23.2938 12.3938 23.2583 12.1539 23.1984C11.914 23.1384 11.7177 23.0811 11.5651 23.0266C11.3797 22.9503 11.2107 22.863 11.058 22.7649C10.9053 22.6667 10.7581 22.5413 10.6163 22.3887C10.4637 22.2469 10.3383 22.0997 10.2401 21.947C10.142 21.7944 10.0547 21.6253 9.97839 21.4399C9.92387 21.2873 9.86662 21.091 9.80664 20.8511C9.74666 20.6112 9.71122 20.2895 9.70032 19.886C9.67851 19.4389 9.66488 19.0409 9.65942 18.6919C9.65397 18.3429 9.65125 17.6123 9.65125 16.5C9.65125 15.3768 9.65397 14.6407 9.65942 14.2917C9.66488 13.9428 9.67851 13.5502 9.70032 13.114C9.71122 12.7105 9.74666 12.3888 9.80664 12.1489C9.86662 11.909 9.92387 11.7127 9.97839 11.5601C10.0547 11.3638 10.142 11.192 10.2401 11.0448C10.3383 10.8976 10.4582 10.7476 10.6 10.595C10.7526 10.4532 10.9026 10.3333 11.0498 10.2351C11.197 10.137 11.3688 10.0497 11.5651 9.97339C11.7177 9.91886 11.914 9.86161 12.1539 9.80164C12.3938 9.74166 12.7155 9.70076 13.119 9.67896C13.5661 9.65715 13.9614 9.64351 14.3049 9.63806C14.6484 9.63261 15.3818 9.62988 16.505 9.62988ZM16.505 8.125C15.3709 8.125 14.6239 8.12773 14.264 8.13318C13.9042 8.13863 13.5007 8.15226 13.0536 8.17407C12.6065 8.19588 12.2221 8.2395 11.9004 8.30493C11.5787 8.37036 11.287 8.4576 11.0253 8.56665C10.7417 8.6757 10.48 8.80656 10.2401 8.95923C10.0002 9.1119 9.76575 9.30273 9.53674 9.53174C9.30774 9.76074 9.1169 9.9952 8.96423 10.2351C8.81156 10.475 8.6807 10.7367 8.57166 11.0203C8.46261 11.282 8.37537 11.5737 8.30994 11.8954C8.24451 12.2171 8.20089 12.6015 8.17908 13.0486C8.15727 13.4957 8.14364 13.8992 8.13818 14.259C8.13273 14.6189 8.13 15.3659 8.13 16.5C8.13 17.6341 8.13273 18.3811 8.13818 18.741C8.14364 19.1008 8.15727 19.5043 8.17908 19.9514C8.20089 20.3985 8.24451 20.7829 8.30994 21.1046C8.37537 21.4263 8.46261 21.718 8.57166 21.9797C8.6807 22.2633 8.81156 22.525 8.96423 22.7649C9.1169 23.0048 9.30774 23.2393 9.53674 23.4683C9.76575 23.6973 10.0002 23.8881 10.2401 24.0408C10.48 24.1934 10.7417 24.3243 11.0253 24.4333C11.287 24.5315 11.5787 24.616 11.9004 24.6869C12.2221 24.7578 12.6065 24.8041 13.0536 24.8259C13.5007 24.8477 13.9042 24.8614 14.264 24.8668C14.6239 24.8723 15.3709 24.875 16.505 24.875C17.6391 24.875 18.3861 24.8723 18.746 24.8668C19.1058 24.8614 19.5093 24.8477 19.9564 24.8259C20.4035 24.8041 20.7879 24.7578 21.1096 24.6869C21.4313 24.616 21.723 24.5315 21.9847 24.4333C22.2574 24.3243 22.5136 24.1934 22.7535 24.0408C22.9934 23.8881 23.2334 23.6973 23.4733 23.4683C23.7023 23.2393 23.8931 23.0048 24.0458 22.7649C24.1984 22.525 24.3293 22.2633 24.4384 21.9797C24.5365 21.718 24.621 21.4263 24.6919 21.1046C24.7628 20.7829 24.8037 20.3985 24.8146 19.9514C24.8364 19.5043 24.85 19.1008 24.8555 18.741C24.8609 18.3811 24.8636 17.6341 24.8636 16.5C24.8636 15.3659 24.8609 14.6189 24.8555 14.259C24.85 13.8992 24.8364 13.4957 24.8146 13.0486C24.8037 12.6015 24.7628 12.2171 24.6919 11.8954C24.621 11.5737 24.5365 11.282 24.4384 11.0203C24.3293 10.7476 24.1984 10.4886 24.0458 10.2433C23.8931 9.99792 23.7023 9.76074 23.4733 9.53174C23.2443 9.30273 23.0098 9.1119 22.7699 8.95923C22.53 8.80656 22.2683 8.6757 21.9847 8.56665C21.723 8.46851 21.4313 8.38399 21.1096 8.31311C20.7879 8.24223 20.4035 8.19588 19.9564 8.17407C19.5093 8.15226 19.1058 8.13863 18.746 8.13318C18.3861 8.12773 17.6391 8.125 16.505 8.125ZM16.505 12.198C15.9161 12.198 15.36 12.3125 14.8365 12.5415C14.3131 12.7596 13.8551 13.0649 13.4625 13.4575C13.0699 13.8501 12.7646 14.3081 12.5465 14.8315C12.3175 15.355 12.203 15.9111 12.203 16.5C12.203 17.0889 12.3175 17.645 12.5465 18.1685C12.7646 18.6919 13.0699 19.1499 13.4625 19.5425C13.8551 19.9351 14.3131 20.2404 14.8365 20.4585C15.36 20.6875 15.9161 20.802 16.505 20.802C17.0939 20.802 17.65 20.6875 18.1735 20.4585C18.6969 20.2404 19.1549 19.9351 19.5475 19.5425C19.9401 19.1499 20.2454 18.6919 20.4635 18.1685C20.6925 17.645 20.807 17.0889 20.807 16.5C20.807 15.9111 20.6925 15.355 20.4635 14.8315C20.2454 14.3081 19.9401 13.8501 19.5475 13.4575C19.1549 13.0649 18.6969 12.7596 18.1735 12.5415C17.65 12.3125 17.0939 12.198 16.505 12.198ZM16.505 19.2971C15.7308 19.2971 15.071 19.0245 14.5258 18.4792C13.9805 17.934 13.7079 17.2743 13.7079 16.5C13.7079 15.7257 13.9805 15.066 14.5258 14.5208C15.071 13.9755 15.7308 13.7029 16.505 13.7029C17.2793 13.7029 17.939 13.9755 18.4843 14.5208C19.0295 15.066 19.3021 15.7257 19.3021 16.5C19.3021 17.2743 19.0295 17.934 18.4843 18.4792C17.939 19.0245 17.2793 19.2971 16.505 19.2971ZM21.9847 12.0344C21.9847 12.307 21.8866 12.5415 21.6903 12.7378C21.494 12.9341 21.2541 13.0322 20.9706 13.0322C20.698 13.0322 20.4635 12.9341 20.2672 12.7378C20.0709 12.5415 19.9728 12.307 19.9728 12.0344C19.9728 11.7509 20.0709 11.511 20.2672 11.3147C20.4635 11.1184 20.698 11.0203 20.9706 11.0203C21.2541 11.0203 21.494 11.1184 21.6903 11.3147C21.8866 11.511 21.9847 11.7509 21.9847 12.0344Z" fill="white"/>
</g>
<defs>
<clipPath id="clip0_12918_23004">
<rect width="16.75" height="17" fill="white" transform="matrix(1 0 0 -1 8.13 25)"/>
</clipPath>
</defs>
</svg>
