<svg width="33" height="33" viewBox="0 0 33 33" fill="none" xmlns="http://www.w3.org/2000/svg">
<rect width="33" height="33" rx="4" fill="white" fill-opacity="0.25"/>
<path d="M15.4582 19.199C15.3491 19.7769 15.2292 20.344 15.0983 20.9001C14.9674 21.4563 14.8039 21.9797 14.6076 22.4705C14.4113 22.9612 14.1768 23.4137 13.9042 23.8281C13.6207 24.2425 13.2826 24.5915 12.89 24.875C12.7701 24.0026 12.7428 23.1793 12.8083 22.405C12.8737 21.6308 12.9827 20.8838 13.1354 20.1641C13.2881 19.4443 13.4626 18.7464 13.6588 18.0703C13.8551 17.3833 14.0242 16.6908 14.1659 15.9929C13.926 15.5894 13.8115 15.1151 13.8224 14.5698C13.8224 14.0137 13.9233 13.5066 14.125 13.0486C14.3268 12.5906 14.613 12.2416 14.9838 12.0017C15.3655 11.7509 15.8071 11.7236 16.3087 11.9199C16.9303 12.1707 17.1866 12.6287 17.0775 13.2939C16.9576 13.9591 16.7831 14.6543 16.5541 15.3795C16.3251 16.1047 16.1942 16.7781 16.1615 17.3997C16.1288 18.0212 16.4996 18.4084 17.2738 18.561C18.0917 18.7246 18.7787 18.512 19.3349 17.9231C19.891 17.3342 20.2918 16.6009 20.5371 15.723C20.7825 14.8452 20.8561 13.9428 20.758 13.0159C20.6489 12.0889 20.3436 11.3692 19.842 10.8567C19.1113 10.1152 18.2607 9.71712 17.2902 9.6626C16.3197 9.60807 15.4173 9.80164 14.583 10.2433C13.7488 10.6849 13.07 11.3256 12.5465 12.1653C12.034 13.0159 11.8595 13.9701 12.0231 15.0278C12.1103 15.5513 12.3066 15.9684 12.612 16.2792C12.9173 16.59 12.8682 17.0998 12.4648 17.8086C11.5269 17.6014 10.889 17.1543 10.5509 16.4673C10.2129 15.7803 10.0657 14.946 10.1093 13.9646C10.1311 13.1576 10.311 12.4161 10.6491 11.74C10.9871 11.0748 11.4179 10.4886 11.9413 9.98157C12.4648 9.47449 13.0645 9.06828 13.7406 8.76294C14.4058 8.4576 15.0819 8.26131 15.769 8.17407C16.6523 8.07593 17.5083 8.10864 18.3371 8.27222C19.1549 8.42489 19.8965 8.69751 20.5617 9.09009C21.2269 9.48267 21.7776 9.98975 22.2138 10.6113C22.6609 11.2329 22.939 11.9581 23.048 12.7869C23.1789 13.7138 23.1516 14.6407 22.9662 15.5676C22.7808 16.4945 22.4537 17.3179 21.9848 18.0376C21.5159 18.7573 20.9215 19.3298 20.2018 19.7551C19.4712 20.1695 18.637 20.344 17.6991 20.2786C17.1866 20.2349 16.7831 20.1068 16.4887 19.8942C16.1942 19.6815 15.8507 19.4498 15.4582 19.199Z" fill="white"/>
</svg>
