<svg width="16" height="16" viewBox="0 0 16 16" fill="none" xmlns="http://www.w3.org/2000/svg">
<path d="M14.6637 14.6666V14.666H14.667V9.77602C14.667 7.38379 14.152 5.54102 11.3554 5.54102C10.0109 5.54102 9.1087 6.27879 8.74037 6.97824H8.70148V5.76435H6.0498V14.666H8.81092V10.2582C8.81092 9.09769 9.03092 7.97546 10.4681 7.97546C11.8843 7.97546 11.9054 9.29991 11.9054 10.3327V14.6666H14.6637Z" fill="white" fill-opacity="0.5"/>
<path d="M1.55371 5.76489H4.31816V14.6666H1.55371V5.76489Z" fill="white" fill-opacity="0.5"/>
<path d="M2.93412 1.33325C2.05023 1.33325 1.33301 2.05047 1.33301 2.93436C1.33301 3.81825 2.05023 4.55047 2.93412 4.55047C3.81801 4.55047 4.53523 3.81825 4.53523 2.93436C4.53467 2.05047 3.81745 1.33325 2.93412 1.33325V1.33325Z" fill="white" fill-opacity="0.5"/>
</svg>
