<svg width="131" height="28" viewBox="0 0 131 28" fill="none" xmlns="http://www.w3.org/2000/svg">
<path d="M12.5534 7.22674C11.2734 6.53341 9.88668 6.16008 8.34002 6.16008C6.84669 6.16008 5.40668 6.53341 4.12668 7.22674C2.84668 7.92008 1.83335 8.88008 1.14002 10.1601C0.393352 11.3867 0.0200195 12.8267 0.0200195 14.3734C0.0200195 15.9201 0.393352 17.3067 1.14002 18.5334C1.88669 19.7601 2.90002 20.7734 4.18002 21.4667C5.46002 22.1601 6.84669 22.5334 8.34002 22.5334C9.83335 22.5334 11.2733 22.1601 12.5 21.4667C13.78 20.7734 14.7934 19.7601 15.4867 18.5334C16.2334 17.3067 16.6067 15.8667 16.6067 14.3201C16.6067 12.7734 16.2334 11.3867 15.4867 10.1601C14.8467 8.93341 13.8334 7.92008 12.5534 7.22674ZM12.18 16.8267C11.8067 17.5734 11.2733 18.1067 10.6333 18.5334C9.99335 18.9601 9.24668 19.1201 8.39335 19.1201C7.59335 19.1201 6.79335 18.9067 6.15335 18.5334C5.46002 18.1067 4.98002 17.5734 4.60669 16.8267C4.23335 16.1334 4.07335 15.2801 4.07335 14.3734C4.07335 13.4667 4.28668 12.7201 4.66002 11.9734C5.03335 11.2801 5.56669 10.6934 6.20669 10.3201C6.84669 9.89341 7.59335 9.68008 8.44668 9.68008C9.24668 9.68008 9.99335 9.89341 10.6867 10.3201C11.3267 10.7467 11.86 11.2801 12.2333 11.9734C12.6067 12.6667 12.82 13.4667 12.82 14.3734C12.7134 15.2801 12.5533 16.0801 12.18 16.8267ZM38.9534 6.96008C38.0467 6.48008 37.0867 6.21341 35.9667 6.21341C34.6867 6.21341 33.5667 6.53341 32.6067 7.17341C32.02 7.60008 31.4867 8.13341 31.1134 8.77341C30.7934 8.18674 30.3134 7.65341 29.6734 7.22674C28.7134 6.53341 27.5933 6.21341 26.3133 6.21341C25.0867 6.21341 24.02 6.48008 23.1667 7.06674C22.6333 7.44008 22.2067 7.92008 21.94 8.50674V6.58674H18.3133V22.2134H22.1V13.0401C22.1 12.0267 22.3667 11.2267 22.9 10.5867C23.4333 10.0001 24.18 9.68008 25.14 9.68008C25.7267 9.68008 26.26 9.84008 26.6867 10.1067C27.1134 10.3734 27.4867 10.7467 27.7534 11.2801C28.02 11.8134 28.1267 12.4001 28.1267 13.0401V22.2134H31.9134V13.0401C31.9134 12.0267 32.18 11.2267 32.7134 10.5867C33.2467 10.0001 33.9933 9.68008 34.9 9.68008C35.54 9.68008 36.0733 9.84008 36.5 10.1067C36.9267 10.3734 37.3 10.7467 37.5667 11.2801C37.8333 11.8134 37.94 12.4001 37.94 13.0401V22.2134H41.7267V12.0801C41.7267 10.9601 41.46 9.94674 40.98 9.04008C40.5534 8.13341 39.86 7.44008 38.9534 6.96008ZM56.3933 7.28008C55.1667 6.53341 53.8333 6.16008 52.3933 6.16008C51.22 6.16008 50.1533 6.37341 49.1933 6.85341C48.4467 7.22674 47.86 7.70674 47.38 8.29341V6.48008H43.7534V27.9201H47.54V20.6667C47.9667 21.1467 48.5533 21.5734 49.1933 21.8401C50.1533 22.2667 51.22 22.5334 52.34 22.5334C53.8333 22.5334 55.1667 22.1601 56.3933 21.4667C57.5667 20.7201 58.5267 19.7601 59.22 18.5334C59.9133 17.3067 60.2333 15.9201 60.2333 14.3734C60.2333 12.8801 59.9133 11.4934 59.22 10.2667C58.5267 8.98674 57.5667 8.02674 56.3933 7.28008ZM55.7533 16.8267C55.38 17.5734 54.8467 18.1067 54.1533 18.4801C53.46 18.8534 52.7133 19.0667 51.86 19.0667C51.06 19.0667 50.3133 18.8534 49.62 18.4801C48.9267 18.1067 48.4467 17.5201 48.0733 16.8267C47.7 16.1334 47.4867 15.2801 47.4867 14.3734C47.4867 13.4667 47.7 12.6667 48.0733 11.9734C48.4467 11.2267 48.98 10.6934 49.62 10.2667C50.3133 9.84008 51.0067 9.68008 51.86 9.68008C52.7133 9.68008 53.46 9.89341 54.1533 10.3201C54.8467 10.7467 55.3267 11.2801 55.7533 12.0267C56.1267 12.7201 56.34 13.5201 56.34 14.4267C56.34 15.2801 56.18 16.0801 55.7533 16.8267ZM72.0733 6.90674C71.06 6.42674 69.94 6.21341 68.7134 6.21341C67.1134 6.21341 65.7267 6.58674 64.5 7.33341C63.2733 8.08008 62.42 9.09341 61.94 10.3201L65.0333 11.8134C65.3533 11.1201 65.78 10.5334 66.42 10.1067C67.06 9.68008 67.7533 9.46674 68.5 9.46674C69.3533 9.46674 70.0467 9.68008 70.58 10.1067C71.1134 10.5334 71.38 11.1201 71.38 11.7601V12.2401L66.6867 12.9867C64.8733 13.2534 63.54 13.8401 62.6333 14.6934C61.7267 15.5467 61.3 16.6667 61.3 17.9467C61.3 18.8534 61.5133 19.6534 61.94 20.3467C62.3667 21.0401 63.0067 21.5201 63.8067 21.8934C64.6067 22.2667 65.5667 22.4801 66.6867 22.4801C67.9667 22.4801 69.0867 22.2134 69.9933 21.6801C70.58 21.3601 71.1133 20.9334 71.54 20.4534V22.2134H75.1134V11.7601C75.1134 10.6934 74.8467 9.73341 74.3134 8.88008C73.8334 8.02674 73.0333 7.38674 72.0733 6.90674ZM71.4333 15.8134C71.4333 16.5067 71.2733 17.1467 70.9533 17.7334C70.6333 18.3201 70.1534 18.8001 69.5134 19.1201C68.8734 19.4401 68.18 19.6001 67.4333 19.6001C66.7933 19.6001 66.26 19.4401 65.8867 19.1201C65.46 18.8001 65.3 18.3734 65.3 17.8401C65.3 17.3067 65.46 16.8801 65.8333 16.5067C66.2067 16.1334 66.74 15.9201 67.4867 15.8134L71.4333 15.1201V15.8134ZM88.5533 6.96008C87.6467 6.48008 86.6333 6.21341 85.46 6.21341C84.34 6.21341 83.3267 6.48008 82.5267 6.96008C81.8867 7.33341 81.4067 7.86674 81.0333 8.45341V6.53341H77.4067V22.2134H81.1933V13.0401C81.1933 12.0267 81.46 11.2267 82.0467 10.5867C82.6333 10.0001 83.38 9.68008 84.34 9.68008C84.9267 9.68008 85.46 9.84008 85.94 10.1067C86.42 10.3734 86.7933 10.7467 87.06 11.2801C87.3267 11.8134 87.4867 12.4001 87.4867 13.0401V22.2134H91.2733V12.0801C91.2733 10.9601 91.0067 9.94674 90.5267 9.04008C90.1533 8.13341 89.46 7.44008 88.5533 6.96008ZM93.4067 22.2134H97.1933V6.53341H93.4067V22.2134ZM95.3267 0.0800781C94.6333 0.0800781 94.1 0.293412 93.7267 0.666745C93.3533 1.04008 93.14 1.57341 93.14 2.26674C93.14 2.96008 93.3533 3.49341 93.7267 3.86674C94.1 4.24008 94.6333 4.45341 95.3267 4.45341C96.02 4.45341 96.5533 4.24008 96.98 3.86674C97.3533 3.49341 97.5667 2.90674 97.5667 2.21341C97.5667 1.52008 97.3533 0.986745 96.98 0.613411C96.5533 0.240078 96.02 0.0800781 95.3267 0.0800781ZM111.38 7.22674C110.1 6.53341 108.713 6.16008 107.167 6.16008C105.673 6.16008 104.233 6.53341 102.953 7.22674C101.673 7.92008 100.66 8.88008 99.9667 10.1601C99.22 11.3867 98.8467 12.8267 98.8467 14.3734C98.8467 15.9201 99.22 17.3067 99.9667 18.5334C100.713 19.7601 101.727 20.7734 103.007 21.4667C104.287 22.1601 105.673 22.5334 107.167 22.5334C108.66 22.5334 110.1 22.1601 111.327 21.4667C112.607 20.7734 113.62 19.7601 114.313 18.5334C115.06 17.3067 115.433 15.8667 115.433 14.3201C115.433 12.7734 115.06 11.3867 114.313 10.1601C113.673 8.93341 112.66 7.92008 111.38 7.22674ZM110.953 16.8267C110.58 17.5734 110.047 18.1067 109.407 18.5334C108.767 18.9601 108.02 19.1201 107.167 19.1201C106.367 19.1201 105.567 18.9067 104.927 18.5334C104.233 18.1067 103.753 17.5734 103.38 16.8267C103.007 16.1334 102.847 15.2801 102.847 14.3734C102.847 13.4667 103.06 12.7201 103.433 11.9734C103.807 11.2801 104.34 10.6934 104.98 10.3201C105.62 9.89341 106.367 9.68008 107.22 9.68008C108.02 9.68008 108.767 9.89341 109.46 10.3201C110.1 10.7467 110.633 11.2801 111.007 11.9734C111.38 12.6667 111.593 13.4667 111.593 14.3734C111.54 15.2801 111.327 16.0801 110.953 16.8267ZM130.313 9.04008C129.78 8.13341 129.087 7.44008 128.233 6.96008C127.327 6.48008 126.313 6.21341 125.14 6.21341C124.02 6.21341 123.007 6.48008 122.207 6.96008C121.567 7.33341 121.087 7.86674 120.713 8.45341V6.53341H117.087V22.2134H120.873V13.0401C120.873 12.0267 121.14 11.2267 121.727 10.5867C122.313 10.0001 123.06 9.68008 124.02 9.68008C124.607 9.68008 125.14 9.84008 125.62 10.1067C126.1 10.3734 126.473 10.7467 126.74 11.2801C127.007 11.8134 127.167 12.4001 127.167 13.0401V22.2134H130.953V12.0801C131.06 10.9601 130.847 9.94674 130.313 9.04008Z" fill="white"/>
</svg>
