<svg width="37" height="36" viewBox="0 0 37 36" fill="none" xmlns="http://www.w3.org/2000/svg">
<path fill-rule="evenodd" clip-rule="evenodd" d="M16.4467 28.8533C15.38 29.5467 14.1534 29.92 12.82 29.92C12.66 29.92 12.5 29.92 12.34 29.92C11.1134 27.9467 10.42 25.6533 10.42 23.2V12.8C10.42 10.3467 11.1134 8.05333 12.2867 6.08C12.4467 6.08 12.6067 6.08 12.82 6.08C14.1534 6.08 15.4334 6.50667 16.4467 7.14667C15.1667 8.69333 14.42 10.6667 14.42 12.8V23.2C14.42 25.3333 15.1667 27.3067 16.4467 28.8533ZM36.02 23.2C36.02 30.2933 30.3134 36 23.22 36C22.5267 36 21.3 36 20.2334 36C22.0467 34.9333 23.5934 33.5467 24.82 31.84C28.1267 31.2533 30.7934 28.8 31.7 25.6H25.4067C24.2867 31.52 19.06 36 12.82 36C5.72669 36 0.0200195 30.2933 0.0200195 23.2V12.8C0.0200195 5.70667 5.72669 0 12.82 0C19.06 0 24.2867 4.48 25.4067 10.4H31.7C30.7934 7.2 28.1267 4.74667 24.82 4.16C23.5934 2.45333 22.0467 1.06667 20.2334 0C21.2467 0 22.42 0 23.22 0C30.3134 0 36.02 5.70667 36.02 12.8V14.4H21.62V12.8C21.62 7.94667 17.6734 4 12.82 4C7.96669 4 4.02002 7.94667 4.02002 12.8V23.2C4.02002 28.0533 7.96669 32 12.82 32C17.6734 32 21.62 28.0533 21.62 23.2V21.6H36.02V23.2Z" fill="#A29061"/>
</svg>
