<svg width="136" height="30" viewBox="0 0 136 30" fill="none" xmlns="http://www.w3.org/2000/svg">
<g clip-path="url(#clip0_10921_23107)">
<path d="M121.527 23.9362H126.405C126.594 24.5512 127.238 25.1661 128.444 25.1661C130.077 25.1661 130.639 24.152 130.639 22.6523V21.5842H130.531C129.725 22.5228 128.655 23.2133 127.076 23.2133C123.966 23.2133 121.262 20.9153 121.262 16.4217C121.262 12.3057 123.485 9.09594 126.838 9.09594C128.768 9.09594 129.947 9.87275 130.726 11.1027H130.807V9.5275H135.63V21.9834C135.63 24.2814 134.825 26.0724 133.619 27.1459C132.359 28.268 130.563 28.7211 128.525 28.7211C124.691 28.7211 122.014 27.1405 121.527 23.9362ZM130.856 16.1789C130.856 14.3879 130.001 12.9422 128.525 12.9422C127.103 12.9422 126.194 14.2261 126.194 16.1789C126.194 18.1047 127.108 19.4911 128.525 19.4911C129.996 19.4965 130.856 18.0778 130.856 16.1789ZM115.877 11.982H115.958C117.001 9.97524 118.369 9.2308 120.111 9.2308C120.511 9.2308 120.781 9.28475 120.943 9.36567V13.7784H120.835C117.861 13.2443 116.12 14.6631 116.12 17.8944V23.9092H111.053V9.5275H115.877V11.982ZM0.625 3.75H10.5425C12.4189 3.75 13.8627 4.20314 14.8848 5.03389C16.0366 5.96714 16.653 7.35891 16.653 9.01502C16.653 10.9409 15.8743 12.1438 14.2683 12.8937V12.9746C16.361 13.6705 17.5669 15.5424 17.5669 17.8134C17.5669 19.9766 16.7342 21.6651 15.3714 22.6793C14.2196 23.51 12.7217 23.9092 10.7372 23.9092H0.625V3.75ZM10.0612 19.4426C11.2671 19.4426 12.1485 18.7197 12.1485 17.3819C12.1485 15.9901 11.186 15.3212 10.0342 15.3212H6.11909V19.4372H10.0612V19.4426ZM9.54749 11.6367C10.6182 11.6367 11.3969 11.0487 11.3969 9.87275C11.3969 8.72372 10.5912 8.16269 9.52045 8.16269H6.11909V11.6367H9.54749Z" fill="#344054"/>
<path d="M18.4754 3.75H23.672V23.9092H18.4754V3.75ZM24.667 16.7399C24.667 12.1978 27.6142 9.12291 32.1727 9.12291C36.7313 9.12291 39.6244 12.1978 39.6244 16.7399C39.6244 21.3145 36.7313 24.357 32.1727 24.357C27.6142 24.3623 24.667 21.3145 24.667 16.7399ZM34.4764 16.7399C34.4764 14.2261 33.6706 12.6509 32.1187 12.6509C30.5667 12.6509 29.815 14.2261 29.815 16.7399C29.815 19.2807 30.5667 20.8559 32.1187 20.8559C33.6706 20.8613 34.4764 19.2807 34.4764 16.7399ZM40.2138 16.7399C40.2138 12.1978 43.1609 9.12291 47.7195 9.12291C52.2781 9.12291 55.1711 12.1978 55.1711 16.7399C55.1711 21.3145 52.2781 24.357 47.7195 24.357C43.1609 24.3623 40.2138 21.3145 40.2138 16.7399ZM50.0231 16.7399C50.0231 14.2261 49.2174 12.6509 47.6654 12.6509C46.1134 12.6509 45.3618 14.2261 45.3618 16.7399C45.3618 19.2807 46.1134 20.8559 47.6654 20.8559C49.2174 20.8613 50.0231 19.2807 50.0231 16.7399ZM56.1607 9.5275H60.9843V11.6907H61.0654C62.0279 10.0076 63.342 9.09594 65.4077 9.09594C67.23 9.09594 68.5981 10.0022 69.2957 11.5828H69.3768C70.5557 9.68394 72.086 9.09594 73.8543 9.09594C77.207 9.09594 78.6508 11.5558 78.6508 14.868V23.9038H73.5839V15.7797C73.5839 14.307 73.1297 13.3468 71.8427 13.3468C70.5827 13.3468 69.9392 14.5228 69.9392 16.0764V23.9092H64.8669V15.7797C64.8669 14.307 64.4127 13.3468 63.1257 13.3468C61.8657 13.3468 61.2222 14.5228 61.2222 16.0764V23.9092H56.1607V9.5275ZM84.837 22.0373H84.783V23.9092H79.9594V3.75H85.0263V11.0218H85.1074C86.07 9.76486 87.357 9.09594 89.2064 9.09594C92.824 9.09594 94.9167 12.3596 94.9167 16.686C94.9167 21.5788 92.6402 24.3839 88.8873 24.3839C87.3299 24.3893 85.7239 23.6395 84.837 22.0373ZM89.7687 16.6374C89.7687 14.3124 88.9144 12.8127 87.384 12.8127C85.832 12.8127 84.837 14.3124 84.837 16.6374C84.837 18.9355 85.8266 20.4621 87.384 20.4621C88.936 20.4567 89.7687 18.9625 89.7687 16.6374ZM95.5602 16.6914C95.5602 12.1978 98.5344 9.07436 102.85 9.07436C104.991 9.07436 106.657 9.74328 107.917 10.9463C109.577 12.5484 110.328 15.0622 110.274 18.0292H100.6C100.816 19.8202 101.671 20.7319 103.201 20.7319C104.088 20.7319 104.861 20.3327 105.186 19.3671H110.063C109.209 22.6523 106.662 24.3138 103.044 24.3138C98.5615 24.3084 95.5602 21.2875 95.5602 16.6914ZM100.6 15.1917H105.207C105.126 13.4547 104.164 12.543 102.958 12.543C101.563 12.543 100.784 13.5356 100.6 15.1917Z" fill="#344054"/>
</g>
<defs>
<clipPath id="clip0_10921_23107">
<rect width="135" height="30" fill="white" transform="translate(0.625)"/>
</clipPath>
</defs>
</svg>
