<svg width="180" height="30" viewBox="0 0 180 30" fill="none" xmlns="http://www.w3.org/2000/svg">
<g clip-path="url(#clip0_10921_23106)">
<path d="M67.9497 11.7148V22.8573H63.881V11.7148H59.7659V8.16728H72.0532V11.7148H67.9497Z" fill="#344054"/>
<path d="M81.5622 18.4261H75.0989C75.2268 19.6474 75.9359 20.1824 76.9705 20.1824C77.9353 20.1824 78.7374 19.9731 79.8185 19.4032L81.26 21.8224C79.8999 22.625 78.4933 23.0786 76.7729 23.0786C73.4598 23.0786 71.6347 20.7291 71.6347 17.3445C71.6347 13.5411 73.7737 11.5987 76.6682 11.5987C79.6907 11.5987 81.5739 13.5876 81.5739 17.6818C81.5739 18.0074 81.5739 18.24 81.5622 18.4261ZM76.5636 14.4018C75.7034 14.4018 75.2268 14.995 75.0989 16.0767H78.2492C78.0516 14.9601 77.6796 14.4018 76.5636 14.4018Z" fill="#344054"/>
<path d="M88.5836 23.0899C85.3519 23.0899 83.4222 21.0312 83.4222 17.3209C83.4222 13.9363 85.1427 11.6101 88.6649 11.6101C90.7458 11.6101 91.9315 12.5754 92.8963 14.1224L90.2924 16.0997C89.7693 15.1343 89.4089 14.669 88.5952 14.669C87.6303 14.669 87.1421 15.6344 87.1421 17.3791C87.1421 19.1237 87.6652 20.0193 88.6998 20.0193C89.4089 20.0193 89.9204 19.6239 90.6063 18.5887L93.001 20.4613C91.7222 22.3455 90.5365 23.0899 88.5836 23.0899Z" fill="#344054"/>
<path d="M101.452 22.8574V16.5999C101.452 15.1693 100.976 14.7971 100.197 14.7971C99.3945 14.7971 98.9179 15.1693 98.9179 16.565V22.8574H95.1399V9.06299L98.9179 7.55095V12.5756C99.6154 12.0522 100.383 11.6102 101.685 11.6102C104.103 11.6102 105.253 13.2269 105.253 16.123V22.8574H101.452Z" fill="#344054"/>
<path d="M114.286 23.0901C109.927 23.0901 107.59 19.8566 107.59 15.5183C107.59 10.796 110.357 7.94644 114.297 7.94644C117.901 7.94644 119.331 9.505 120.342 12.2732L116.657 13.7038C116.134 12.343 115.634 11.4823 114.286 11.4823C112.589 11.4823 111.856 13.1804 111.856 15.5066C111.856 17.7514 112.565 19.531 114.332 19.531C115.611 19.531 116.157 18.8331 116.948 17.449L120.389 19.2751C119.412 21.2175 117.773 23.0901 114.286 23.0901Z" fill="#344054"/>
<path d="M129.677 15.9952C129.2 15.4718 128.654 15.0764 127.922 15.0764C127.003 15.0764 126.434 15.5183 126.434 16.8559V22.8575H122.656V11.8429H126.434V12.6455C127.085 12.0174 127.817 11.6219 128.782 11.6219C129.584 11.6219 130.119 11.808 130.56 12.0872L129.677 15.9952Z" fill="#344054"/>
<path d="M138.651 22.8575V22.1247C137.977 22.6481 137.187 23.0901 135.908 23.0901C133.49 23.0901 132.339 21.4734 132.339 18.5772V11.8429H136.14V18.1004C136.14 19.531 136.617 19.9032 137.396 19.9032C138.175 19.9032 138.651 19.531 138.651 18.1353V11.8429H142.453V22.8575H138.651Z" fill="#344054"/>
<path d="M151.485 22.8573V16.5998C151.485 15.1692 151.008 14.797 150.229 14.797C149.427 14.797 148.951 15.1692 148.951 16.5649V22.8573H145.173V11.8427H148.951V12.5754C149.648 12.052 150.415 11.6101 151.717 11.6101C154.135 11.6101 155.286 13.2268 155.286 16.1229V22.8573H151.485Z" fill="#344054"/>
<path d="M162.645 23.0899C159.413 23.0899 157.483 21.0312 157.483 17.3209C157.483 13.9363 159.204 11.6101 162.726 11.6101C164.807 11.6101 165.993 12.5754 166.957 14.1224L164.354 16.0997C163.83 15.1343 163.47 14.669 162.656 14.669C161.691 14.669 161.203 15.6344 161.203 17.3791C161.203 19.1237 161.726 20.0193 162.761 20.0193C163.47 20.0193 163.982 19.6239 164.667 18.5887L167.062 20.4613C165.783 22.3455 164.598 23.0899 162.645 23.0899Z" fill="#344054"/>
<path d="M175.513 22.8574V16.5999C175.513 15.1693 175.037 14.7971 174.258 14.7971C173.456 14.7971 172.979 15.1693 172.979 16.565V22.8574H169.201V9.06299L172.979 7.55095V12.5756C173.677 12.0522 174.444 11.6102 175.746 11.6102C178.164 11.6102 179.315 13.2269 179.315 16.123V22.8574H175.513Z" fill="#344054"/>
<path d="M0.875 1.875V10.2726H9.26805V27.0562H17.6495V10.2726H26.0425V1.875H0.875Z" fill="#344054"/>
<path d="M34.424 18.6587V10.2727L26.0425 10.2726L26.0425 27.0563H51.1984V18.6587H34.424Z" fill="#344054"/>
<path d="M51.1984 1.875H34.4239L34.424 10.2727L51.1984 10.2726V1.875Z" fill="#344054"/>
</g>
<defs>
<clipPath id="clip0_10921_23106">
<rect width="178.75" height="30" fill="white" transform="translate(0.875)"/>
</clipPath>
</defs>
</svg>
