<svg width="87" height="30" viewBox="0 0 87 30" fill="none" xmlns="http://www.w3.org/2000/svg">
<g clip-path="url(#clip0_10921_23104)">
<path fill-rule="evenodd" clip-rule="evenodd" d="M52.5398 9.85367C51.1662 9.85367 50.0788 10.1389 48.9914 10.7664C48.9914 7.62897 48.9914 4.71974 49.1058 3.75L42.4096 4.94792V5.51835L43.0964 5.63244C44.0121 5.80357 44.2983 6.31696 44.47 7.51488C44.6417 9.91071 44.5844 22.5174 44.47 24.628C46.2442 25.0273 48.1329 25.3125 50.0216 25.3125C55.287 25.3125 58.4348 22.061 58.4348 16.9271C58.492 12.8199 55.9165 9.85367 52.5398 9.85367ZM50.2505 24.1716C49.8499 24.1716 49.3348 24.1716 49.0486 24.0575C48.9341 22.6885 48.8769 16.87 48.9341 11.7361C49.5065 11.565 49.9071 11.4509 50.4222 11.4509C52.597 11.4509 53.7989 14.0179 53.7989 17.1553C53.7989 21.1483 52.3109 24.1716 50.2505 24.1716Z" fill="#344054"/>
<path fill-rule="evenodd" clip-rule="evenodd" d="M17.456 4.14921H0V5.06191L0.97296 5.17599C2.28932 5.34712 2.74718 6.14574 2.97611 8.02818C3.26228 11.5649 3.14781 18.0108 2.97611 21.0912C2.80441 22.9736 2.28932 23.8293 0.97296 23.9434L0 24.1145V24.9131H11.2177V24.1145L10.0158 23.9434C8.6994 23.8293 8.24154 22.9736 8.01261 21.0912C7.89814 19.7792 7.84091 17.7256 7.84091 15.1586L10.2447 15.2727C11.7327 15.2727 12.4195 16.4706 12.7057 18.1249H13.6214V11.0515H12.7057C12.4195 12.7058 11.7327 13.9037 10.2447 13.9037L7.84091 14.0178C7.84091 10.6522 7.95537 7.51478 8.01261 5.63234H11.5038C14.1938 5.63234 15.5674 7.28661 16.5403 10.2529L17.5133 9.96766L17.456 4.14921Z" fill="#344054"/>
<path fill-rule="evenodd" clip-rule="evenodd" d="M23.0649 9.68258C28.0441 9.68258 30.5051 13.0482 30.5051 17.4976C30.5051 21.7188 27.758 25.3125 22.7787 25.3125C17.7994 25.3125 15.3384 21.947 15.3384 17.4976C15.3384 13.2193 18.1428 9.68258 23.0649 9.68258ZM22.7787 10.6523C20.6039 10.6523 20.0315 13.6186 20.0315 17.4405C20.0315 21.2054 21.0045 24.2287 23.0076 24.2287C25.297 24.2287 25.8693 21.2624 25.8693 17.4405C25.8693 13.7327 24.8963 10.6523 22.7787 10.6523Z" fill="#344054"/>
<path fill-rule="evenodd" clip-rule="evenodd" d="M59.7512 17.5546C59.7512 13.5045 62.3266 9.62557 67.3631 9.62557C71.5411 9.62557 73.4871 12.7059 73.4871 16.756H64.2726C64.1581 20.4068 65.9323 23.0879 69.538 23.0879C71.1405 23.0879 71.9418 22.6886 72.9147 22.004L73.3154 22.5174C72.3424 23.8865 70.1675 25.2555 67.3631 25.2555C62.9562 25.3126 59.7512 22.1181 59.7512 17.5546ZM64.3298 15.7292L68.9657 15.6152C68.9657 13.6186 68.6795 10.6524 66.9625 10.6524C65.3028 10.6524 64.4443 13.4475 64.3298 15.7292Z" fill="#344054"/>
<path fill-rule="evenodd" clip-rule="evenodd" d="M85.3343 10.4812C84.1324 9.96779 82.5871 9.68258 80.7556 9.68258C77.0927 9.68258 74.8034 11.8502 74.8034 14.4172C74.8034 16.9842 76.4632 18.068 78.8669 18.8666C81.328 19.7793 82.0148 20.4638 82.0148 21.6047C82.0148 22.8026 81.099 23.8864 79.5537 23.8864C77.6651 23.8864 76.2915 22.8026 75.204 19.8363L74.5172 20.0075L74.6317 24.3428C75.8336 24.8562 78.0085 25.2555 79.8971 25.2555C83.789 25.2555 86.25 23.259 86.25 20.2357C86.25 18.1821 85.1626 16.9842 82.5871 16.0144C79.8399 14.9306 78.8097 14.2461 78.8097 12.9341C78.8097 11.6221 79.7254 10.7664 80.8701 10.7664C82.6443 10.7664 83.8462 11.8502 84.7619 14.5313L85.4487 14.3602L85.3343 10.4812Z" fill="#344054"/>
<path fill-rule="evenodd" clip-rule="evenodd" d="M43.3825 10.0819C41.7228 9.11221 38.7467 9.56856 37.1442 13.1623L37.2586 9.68264L30.6196 10.9946V11.5651L31.3064 11.6792C32.2221 11.7933 32.6228 12.2496 32.68 13.5616C32.8517 15.9574 32.7945 20.0646 32.68 22.1752C32.5655 23.3731 32.1649 23.9436 31.3064 24.0576L30.6196 24.1717V24.9703H39.8341V24.1717L38.6322 24.0576C37.6593 23.9436 37.3159 23.3731 37.2586 22.1752C37.0869 20.2928 37.0869 16.5279 37.1442 14.1891C37.6593 13.5046 39.8341 12.8771 41.78 14.1891L43.3825 10.0819Z" fill="#344054"/>
</g>
<defs>
<clipPath id="clip0_10921_23104">
<rect width="86.25" height="30" fill="white"/>
</clipPath>
</defs>
</svg>
