<svg width="98" height="60" viewBox="0 0 98 60" fill="none" xmlns="http://www.w3.org/2000/svg">
<path d="M42.2812 30.0075L42.2593 29.968L42.0182 30.3865L27.9383 5.09092C27.2206 3.76124 26.1369 2.90537 24.1957 2.04443L34.0251 2.10824L44.8721 20.8859L55.7193 2.42332L55.7413 2.46286L55.9824 2.04443L70.0623 27.34C70.78 28.6696 71.8637 29.5255 73.8049 30.3865L63.9755 30.3227L53.1285 11.545L42.2812 30.0075Z" fill="white"/>
<path fill-rule="evenodd" clip-rule="evenodd" d="M75.805 3.84261H75.3217V1.07673L75.887 1.07673C76.3225 1.07669 76.7819 1.07664 77.0138 1.42559C77.1967 1.70119 77.2223 2.37188 76.557 2.52685C76.5757 2.54312 76.5922 2.55228 76.6092 2.5617C76.6556 2.58743 76.7055 2.61511 76.813 2.79453C76.8548 2.86428 77.3031 3.77281 77.3089 3.84261H76.7046C76.6723 3.78142 76.598 3.60762 76.519 3.4224C76.4132 3.17471 76.2987 2.9066 76.2639 2.86007C76.145 2.70124 76.0276 2.70125 75.8498 2.70126H75.8453V3.80233C75.8453 3.83334 75.836 3.84261 75.805 3.84261ZM75.8453 2.28513H76.087C76.3422 2.28513 76.5703 2.15911 76.5703 1.90914C76.5703 1.5155 76.2394 1.51753 75.9142 1.51952C75.8912 1.51966 75.8682 1.5198 75.8453 1.5198V2.28513Z" fill="white"/>
<path fill-rule="evenodd" clip-rule="evenodd" d="M73.8236 3.28636C73.7079 2.98744 73.6836 2.70337 73.6836 2.37919C73.6836 2.14328 73.7449 1.8324 73.8274 1.62333C73.8341 1.60643 73.8395 1.59094 73.8449 1.57568C73.8518 1.55614 73.8585 1.53698 73.8675 1.51577L74.0167 1.22168C74.1473 1.00333 74.2283 0.901341 74.4054 0.724216C74.6355 0.494108 74.9019 0.304102 75.2064 0.182678C75.7501 -0.0341727 76.4164 -0.0707622 76.9675 0.142387C76.986 0.149569 77.0013 0.155123 77.0165 0.160604C77.0347 0.167173 77.0526 0.173638 77.0751 0.182678C77.4768 0.342797 77.9206 0.694563 78.1548 1.04975L78.3217 1.32614C78.4845 1.59691 78.5978 2.07488 78.5978 2.37919C78.5978 2.92673 78.545 3.06455 78.3677 3.50514C78.3542 3.53906 78.344 3.55587 78.33 3.57888C78.3259 3.58568 78.3214 3.59302 78.3165 3.6015C78.3078 3.6165 78.3005 3.63085 78.2932 3.6453C78.2846 3.66222 78.2759 3.67928 78.2648 3.69768C78.0894 3.98887 77.8312 4.28878 77.5505 4.47377C77.4072 4.5684 77.2379 4.67193 77.0751 4.73667L76.7415 4.84634C76.336 4.94097 75.9347 4.94481 75.529 4.84362C75.3909 4.8093 75.2863 4.76585 75.1731 4.71884C75.1478 4.7083 75.1219 4.69758 75.0952 4.68674C74.8716 4.59637 74.58 4.36992 74.4054 4.19509C74.3019 4.0916 74.2071 3.9914 74.1267 3.86955C73.962 3.61982 73.9276 3.55521 73.8236 3.28636ZM74.5947 0.913663C74.198 1.35116 73.9521 1.82046 73.9521 2.45958C73.9521 2.88087 74.1063 3.38198 74.3509 3.71248C74.3709 3.73955 74.386 3.76043 74.3984 3.7777C74.4413 3.83728 74.4532 3.8538 74.533 3.93298C74.5489 3.94876 74.567 3.968 74.5867 3.98892C74.6327 4.03777 74.6874 4.09577 74.7423 4.14018C74.893 4.26198 75.0684 4.37741 75.2488 4.4526C75.8665 4.70988 76.424 4.71817 77.0442 4.45086C77.1129 4.42116 77.1717 4.38823 77.2291 4.35352C77.3821 4.26137 77.5621 4.13282 77.688 4.00681C77.7014 3.99344 77.71 3.98176 77.7189 3.96957C77.7284 3.95659 77.7383 3.94302 77.755 3.92624C77.9096 3.7709 78.0489 3.55484 78.1337 3.35153C78.4065 2.69662 78.4015 1.97946 78.0347 1.37121C77.969 1.26253 77.8977 1.15112 77.8152 1.05378C77.6188 0.821935 77.3131 0.580445 77.0348 0.464641C76.3903 0.196354 75.8698 0.212518 75.2392 0.470593C75.1661 0.500481 75.1135 0.529007 75.0524 0.565593C74.9208 0.644623 74.6958 0.802076 74.5947 0.913663Z" fill="white"/>
<path d="M11.11 38.6426H9.47849C9.56389 38.7066 9.56656 38.8692 9.4866 39.1304C9.40663 39.3917 9.17474 39.9169 8.79084 40.7059L7.01542 44.3686L5.20819 40.722C4.83488 39.9649 4.61114 39.4424 4.53633 39.1545C4.46175 38.8665 4.47777 38.696 4.58435 38.6426H0.458008C0.628574 38.7494 0.817833 38.9519 1.02578 39.2505C1.23373 39.549 1.58278 40.1461 2.07326 41.0417L5.64012 47.8073H5.81588L9.57448 41.0417C10.3315 39.6876 10.8434 38.8879 11.11 38.6426Z" fill="white"/>
<path d="M97.5424 38.6426H96.1029C96.3269 39.0905 96.4388 40.6632 96.4388 43.361V43.9527L88.2657 38.6106L87.962 38.5946L87.978 42.9611C87.9992 45.4773 87.8926 47.0502 87.658 47.6793H89.0496C88.847 47.2314 88.7456 45.6587 88.7456 42.9611V42.2572L96.9505 47.7273L97.1905 47.6793V43.361C97.1905 40.6846 97.3078 39.1119 97.5424 38.6426Z" fill="white"/>
<path fill-rule="evenodd" clip-rule="evenodd" d="M67.1584 39.7863C65.9802 40.6659 65.3911 41.8415 65.3911 43.313C65.3911 44.7311 65.9401 45.8399 67.0385 46.6397C68.1367 47.4394 69.5922 47.8393 71.4048 47.8393C73.3242 47.8393 74.8622 47.4046 76.0191 46.5356C77.1761 45.6666 77.7545 44.4911 77.7545 43.0091C77.7545 41.5696 77.216 40.4527 76.139 39.6583C75.0622 38.8639 73.6281 38.4666 71.8367 38.4666C69.8961 38.4666 68.3367 38.9066 67.1584 39.7863ZM69.5496 40.0981C70.0613 39.341 70.7278 38.9625 71.5488 38.9625C72.4338 38.9625 73.1268 39.3863 73.6281 40.2342C74.1292 41.0818 74.3798 42.1027 74.3798 43.297C74.3798 44.4698 74.1371 45.4375 73.652 46.1999C73.1669 46.9621 72.5137 47.3434 71.6927 47.3434C70.8077 47.3434 70.1014 46.9116 69.5735 46.0478C69.0458 45.1842 68.7818 44.1553 68.7818 42.9611C68.7818 41.8095 69.0377 40.8551 69.5496 40.0981Z" fill="white"/>
<path d="M51.9368 47.6793H55.4715C55.2583 47.2422 55.1515 45.8187 55.1515 43.4088V42.9131C55.1515 40.5032 55.2583 39.0799 55.4715 38.6426H51.9368C52.15 39.1119 52.2567 40.5352 52.2567 42.9131V43.4088C52.2567 45.7867 52.15 47.2102 51.9368 47.6793Z" fill="white"/>
<path d="M36.2912 40.1621C36.2912 39.5224 36.8297 39.2025 37.9067 39.2025C38.5571 39.2025 39.1382 39.309 39.6499 39.5224C40.2258 39.7676 40.7429 40.194 41.2014 40.8019L41.3774 40.7699L41.0255 39.0905C40.9295 39.0905 40.7803 39.0398 40.5777 38.9386C40.3752 38.8372 40.0631 38.7386 39.642 38.6426C39.2209 38.5466 38.7011 38.4986 38.0826 38.4986C36.6431 38.4986 35.5955 38.7494 34.9398 39.2505C34.2839 39.7515 33.9561 40.4234 33.9561 41.2657C33.9561 41.9267 34.1614 42.4573 34.5719 42.857C34.9824 43.2569 35.5662 43.5848 36.3232 43.8407L37.2348 44.1446C38.0452 44.4112 38.661 44.6723 39.0821 44.9283C39.5034 45.1842 39.7139 45.4988 39.7139 45.8719C39.7139 46.7143 39.0797 47.1354 37.8107 47.1354C37.0642 47.1354 36.3552 46.9889 35.6836 46.6956C35.0117 46.4025 34.4786 45.9786 34.0841 45.4242L33.9401 45.4722L34.228 47.2154C34.2386 47.2154 34.2654 47.2208 34.3081 47.2314C34.3506 47.2422 34.4227 47.2634 34.5239 47.2954C34.6253 47.3274 34.7292 47.3594 34.8357 47.3914C35.8915 47.6899 36.8617 47.8393 37.7467 47.8393C39.2394 47.8393 40.3245 47.5806 41.0015 47.0635C41.6786 46.5464 42.0172 45.7813 42.0172 44.7683C42.0172 43.5742 41.2442 42.7051 39.6979 42.1613L38.9143 41.8735C37.9227 41.5216 37.2375 41.2285 36.859 40.9937C36.4805 40.7592 36.2912 40.482 36.2912 40.1621Z" fill="white"/>
<path d="M20.3899 47.6793H23.9245C23.7114 47.2422 23.6046 45.8187 23.6046 43.4088V42.9131C23.6046 40.5032 23.7114 39.0799 23.9245 38.6426H20.3899C20.6031 39.1119 20.7098 40.5352 20.7098 42.9131V43.4088C20.7098 45.7867 20.6031 47.2102 20.3899 47.6793Z" fill="white"/>
<path fill-rule="evenodd" clip-rule="evenodd" d="M22.6209 60H22.3018V54.3186H24.1929C26.1311 54.3186 26.7811 54.9057 26.7811 55.8988C26.7811 56.9089 25.9301 57.4875 24.3581 57.4875H22.6209V60ZM22.6209 54.5259V57.2975H24.311C25.7764 57.2975 26.4502 56.7966 26.4502 55.9073C26.4502 55.0179 25.9182 54.5259 24.181 54.5259H22.6209Z" fill="white"/>
<path fill-rule="evenodd" clip-rule="evenodd" d="M34.9242 60H34.6169V54.3186H36.6852C38.4225 54.3186 39.0489 54.9748 39.0489 55.8123C39.0489 56.6153 38.5761 57.1766 37.2642 57.332V57.3493L39.5453 60H39.1906L36.9451 57.3666H34.9242V60ZM34.9242 54.5259V57.1853H36.7088C38.2806 57.1853 38.7416 56.5548 38.7416 55.8123C38.7416 55.0699 38.2334 54.5259 36.6733 54.5259H34.9242Z" fill="white"/>
<path d="M47.6647 60H47.3456V54.3186H47.6647V60Z" fill="white"/>
<path d="M56.3397 60H56.0324V54.3186H56.5169L59.4126 59.6806H59.4361L62.3436 54.3186H62.8281V60H62.5207V54.5777H62.4971L59.5661 60H59.2823L56.3397 54.5777V60Z" fill="white"/>
<path d="M75.6984 60H71.2076V54.3186H75.6984V54.5259H71.5267V56.9866H74.7294V57.1939H71.5267V59.8015H75.6984V60Z" fill="white"/>
</svg>
