<svg width="69" height="45" viewBox="0 0 69 45" fill="none" xmlns="http://www.w3.org/2000/svg">
<g clip-path="url(#clip0_10921_22874)">
<path opacity="0.05" d="M34.7037 44.6212C53.6246 44.6212 68.963 34.7597 68.963 22.5948C68.963 10.4299 53.6246 0.568359 34.7037 0.568359C15.7828 0.568359 0.444458 10.4299 0.444458 22.5948C0.444458 34.7597 15.7828 44.6212 34.7037 44.6212Z" fill="white"/>
<path d="M48.402 20.7912C48.4635 19.6455 48.0736 18.5084 47.2687 17.4855C46.7235 17.0664 45.9671 16.7833 45.131 16.6855C41.6687 16.4834 38.1921 16.4005 34.7161 16.437C31.2509 16.3987 27.7848 16.479 24.3328 16.6776C23.6506 16.7573 23.0192 16.9631 22.5157 17.2696C21.3948 17.9339 21.2701 19.0705 21.1454 20.0309C20.9647 21.7578 20.9647 23.4907 21.1454 25.2176C21.1816 25.7583 21.307 26.2949 21.5195 26.8185C21.6695 27.2229 21.9732 27.5971 22.4034 27.9075C22.907 28.2303 23.5494 28.4488 24.2479 28.5348C26.9318 28.7479 29.6362 28.8362 32.3399 28.7991C36.6977 28.8388 40.5197 28.7991 45.0391 28.5754C45.7581 28.4965 46.4226 28.2786 46.944 27.9507C47.2925 27.7264 47.5528 27.4518 47.7031 27.1498C48.1482 26.2714 48.3667 25.352 48.3499 24.4282C48.402 23.9771 48.402 21.2714 48.402 20.7912ZM31.8932 24.9057V19.9507L39.263 22.4397C37.1965 23.1771 34.4695 24.0097 31.8932 24.9057Z" fill="white"/>
</g>
<defs>
<clipPath id="clip0_10921_22874">
<rect width="68.5185" height="44.0529" fill="white" transform="translate(0.444458 0.568359)"/>
</clipPath>
</defs>
</svg>
