<svg width="69" height="45" viewBox="0 0 69 45" fill="none" xmlns="http://www.w3.org/2000/svg">
<g clip-path="url(#clip0_10921_22871)">
<path opacity="0.05" d="M34.4819 44.6212C53.4028 44.6212 68.7412 34.7597 68.7412 22.5948C68.7412 10.4299 53.4028 0.568359 34.4819 0.568359C15.561 0.568359 0.222656 10.4299 0.222656 22.5948C0.222656 34.7597 15.561 44.6212 34.4819 44.6212Z" fill="white"/>
<path d="M36.1926 31.3711V24.9718H39.569L40.0735 22.4513H36.1926V20.8434C36.1926 20.1059 36.5229 19.6152 38.1344 19.6152H40.21V17.363C39.2327 17.2965 38.2514 17.2629 37.2686 17.2626H37.1856C36.5207 17.2439 35.8567 17.3101 35.2318 17.4573C34.6068 17.6044 34.0344 17.8296 33.5456 18.12C33.0667 18.4514 32.6952 18.8412 32.4549 19.2663C32.2145 19.6914 32.1096 20.143 32.1457 20.5947V22.4521H28.7573V24.9727H32.1457V31.3165C28.7376 30.9374 25.6787 29.7438 23.5823 27.9751C21.4859 26.2064 20.5074 23.9934 20.8429 21.7802C21.1784 19.5669 22.8034 17.517 25.3916 16.0419C27.9797 14.5667 31.339 13.7754 34.7968 13.8266C38.2546 13.8777 41.555 14.7677 44.0348 16.3179C46.5146 17.868 47.9905 19.9637 48.1673 22.1846C48.3441 24.4054 47.2084 26.5871 44.9876 28.2919C42.7668 29.9967 39.6256 31.0985 36.194 31.3763L36.1926 31.3711Z" fill="white"/>
</g>
<defs>
<clipPath id="clip0_10921_22871">
<rect width="68.5185" height="44.0529" fill="white" transform="translate(0.222656 0.568359)"/>
</clipPath>
</defs>
</svg>
