<svg width="16" height="16" viewBox="0 0 16 16" fill="none" xmlns="http://www.w3.org/2000/svg">
<path d="M11.7086 0.669718L9.85713 0.666666C7.77703 0.666666 6.43277 2.08339 6.43277 4.27615V5.94037H4.57116C4.4103 5.94037 4.28003 6.07433 4.28003 6.23958V8.65084C4.28003 8.81608 4.41044 8.9499 4.57116 8.9499H6.43277V15.0343C6.43277 15.1995 6.56304 15.3333 6.7239 15.3333H9.15277C9.31364 15.3333 9.4439 15.1994 9.4439 15.0343V8.9499H11.6206C11.7814 8.9499 11.9117 8.81608 11.9117 8.65084L11.9126 6.23958C11.9126 6.16024 11.8818 6.08425 11.8273 6.0281C11.7728 5.97195 11.6985 5.94037 11.6213 5.94037H9.4439V4.52959C9.4439 3.85152 9.6012 3.50729 10.4611 3.50729L11.7083 3.50683C11.8691 3.50683 11.9993 3.37287 11.9993 3.20777V0.968779C11.9993 0.803838 11.8692 0.670023 11.7086 0.669718Z" fill="white" fill-opacity="0.5"/>
</svg>
