<svg width="25" height="24" viewBox="0 0 25 24" fill="none" xmlns="http://www.w3.org/2000/svg">
<path d="M9.93521 3.50028C7.74377 4.2501 5.87646 5.89005 4.83638 7.96538C4.47356 8.68134 4.21233 9.44085 4.05269 10.2294C3.65601 12.1838 3.93175 14.2688 4.83154 16.049C5.41689 17.21 6.25863 18.2453 7.27453 19.0531C8.23721 19.8175 9.35469 20.3883 10.5447 20.7028C12.0444 21.1043 13.6408 21.0946 15.1501 20.7511C16.5143 20.4367 17.806 19.7836 18.8364 18.8355C19.9248 17.8341 20.7037 16.5182 21.1149 15.1008C21.5648 13.5576 21.6228 11.908 21.3423 10.3213C18.5219 10.3213 15.6968 10.3213 12.8765 10.3213C12.8765 11.492 12.8765 12.6627 12.8765 13.8334C14.5116 13.8334 16.1467 13.8334 17.7818 13.8334C17.5931 14.9557 16.9255 15.9813 15.9822 16.615C15.3872 17.0165 14.7051 17.2729 13.9988 17.3987C13.2925 17.5196 12.5572 17.5341 11.8509 17.3939C11.1301 17.2487 10.448 16.9488 9.84813 16.5279C8.89028 15.8555 8.15981 14.8735 7.78731 13.7657C7.40514 12.6385 7.4003 11.3856 7.78731 10.2632C8.05822 9.46987 8.50328 8.73939 9.09346 8.13953C9.8191 7.39454 10.7624 6.86241 11.7832 6.64471C12.6539 6.46089 13.5731 6.49475 14.4245 6.75114C15.1501 6.96883 15.8177 7.37035 16.3644 7.89281C16.9159 7.34133 17.4673 6.78984 18.0188 6.23836C18.3091 5.94326 18.6139 5.65784 18.8944 5.35308C18.0575 4.57906 17.0707 3.95501 15.9967 3.55833C14.0617 2.84236 11.8848 2.82785 9.93521 3.50028Z" fill="white"/>
<path d="M9.93485 3.49888C11.8796 2.82646 14.0613 2.84097 15.9964 3.5521C17.0703 3.94878 18.0523 4.56799 18.8941 5.34685C18.6135 5.65162 18.3087 5.93703 18.0185 6.23213C17.467 6.78361 16.9155 7.3351 16.364 7.88658C15.8174 7.36412 15.1498 6.96744 14.4241 6.74491C13.5727 6.48852 12.6536 6.44982 11.7828 6.63848C10.7669 6.85618 9.82359 7.38831 9.09311 8.1333C8.50293 8.72833 8.05787 9.46364 7.78696 10.257C6.80493 9.49267 5.8229 8.73316 4.83603 7.96882C5.87611 5.88866 7.74342 4.24871 9.93485 3.49888Z" fill="#F44336"/>
<path d="M4.05732 10.223C4.21696 9.43929 4.47819 8.67495 4.84101 7.95898C5.82304 8.72332 6.80507 9.48283 7.79194 10.2472C7.40493 11.3743 7.40493 12.6273 7.79194 13.7496C6.80991 14.5139 5.82787 15.2783 4.84584 16.0378C3.93638 14.2624 3.66063 12.1774 4.05732 10.223Z" fill="#FBBC05"/>
<path d="M12.8765 10.3149C15.6968 10.3149 18.522 10.3149 21.3423 10.3149C21.6229 11.8968 21.56 13.5465 21.1149 15.0945C20.7037 16.5119 19.9249 17.8277 18.8364 18.8291C17.8834 18.089 16.9304 17.3488 15.9774 16.6087C16.9207 15.9749 17.5883 14.9494 17.777 13.827C16.1419 13.827 14.5068 13.827 12.8717 13.827C12.8765 12.6563 12.8765 11.4856 12.8765 10.3149Z" fill="#1976D2"/>
<path d="M4.83621 16.0426C5.81824 15.2831 6.80028 14.5187 7.78231 13.7544C8.15964 14.8622 8.88528 15.8442 9.84312 16.5167C10.443 16.9375 11.1299 17.2375 11.8459 17.3826C12.5522 17.5277 13.2827 17.5084 13.9938 17.3874C14.7001 17.2617 15.3822 17.0053 15.9772 16.6037C16.9302 17.3439 17.8832 18.084 18.8362 18.8242C17.8058 19.7772 16.5142 20.4254 15.15 20.7399C13.6406 21.0834 12.0442 21.093 10.5446 20.6915C9.35453 20.3771 8.23704 19.8111 7.27436 19.0419C6.2633 18.2388 5.42156 17.2036 4.83621 16.0426Z" fill="#21BA45"/>
</svg>
