<svg width="206" height="30" viewBox="0 0 206 30" fill="none" xmlns="http://www.w3.org/2000/svg">
<g clip-path="url(#clip0_14865_2432)">
<path fill-rule="evenodd" clip-rule="evenodd" d="M4.11579 10.9827C4.52193 9.88275 5.08038 9.0197 5.79113 8.38511C5.8842 8.3428 5.98573 8.32588 6.08727 8.30896C6.1888 8.30049 6.43418 8.29203 6.83186 8.29203C7.05185 8.29203 7.238 8.30896 7.40723 8.33434C7.57645 8.36818 7.74568 8.42741 7.92337 8.51203C8.10105 8.6051 8.31258 8.72356 8.5495 8.88432L5.52883 11.2873L6.23957 11.8542V19.8586C5.4696 19.4863 4.82654 18.8855 4.40348 18.1409C3.81119 17.1171 3.51504 15.7379 3.51504 14.0203C3.50658 13.0896 3.70965 12.0742 4.11579 10.9827ZM3.83657 7.91128C4.01426 7.91128 4.24271 7.94512 4.52193 8.00435C4.80116 8.06358 5.05499 8.12281 5.29191 8.18204C3.6335 8.91817 2.34739 10.1281 1.44203 11.8288C0.655134 13.3265 0.248992 14.9933 0.257454 16.6941C0.257454 18.8686 1.01051 20.7301 2.52507 22.2785C4.03964 23.8269 5.8842 24.6053 8.05028 24.6053C10.1402 24.6053 11.9171 23.8015 13.3555 22.2023C14.7939 20.6032 15.5216 18.7163 15.5216 16.5418C15.327 16.9987 15.0985 17.3794 14.8531 17.684C14.5401 18.0563 14.1847 18.4032 13.8039 18.7078C13.5078 18.9617 13.237 19.1563 13.0001 19.2832C12.7632 19.4101 12.4586 19.554 12.0779 19.7147V9.03662C12.5517 8.84202 12.9324 8.63894 13.2201 8.42741C13.5078 8.22434 13.8209 7.91974 14.1593 7.52206C15.0308 6.55748 15.5131 5.47443 15.6147 4.28986C14.9801 4.70446 14.4132 5.00906 13.9055 5.21213C13.3978 5.40674 12.8309 5.54212 12.2048 5.60135C12.1032 5.60135 11.9679 5.60981 11.7902 5.62674C11.0963 5.62674 10.0641 5.35598 8.69334 4.81446C7.32262 4.27294 6.23957 4.00218 5.44421 4.00218C3.87888 4.00218 2.62661 4.7383 1.67895 6.19364C0.83282 7.49667 0.401295 9.04509 0.401295 10.8473C0.519753 10.2974 0.807436 9.77275 1.26435 9.27354C1.6028 8.90124 1.99201 8.57972 2.42354 8.32588C2.8466 8.05512 3.32043 7.91128 3.83657 7.91128ZM18.2715 24.453L20.8522 21.5762L19.5492 20.2139V12.5057L20.2937 12.0065L22.3668 13.5803V23.7508C22.3668 24.3261 22.3329 24.8169 22.2652 25.223C22.206 25.6038 22.0452 25.9676 21.8083 26.2722L21.0806 27.1776C20.7507 27.5837 20.3445 27.9052 19.8538 28.1421C20.8437 28.0406 21.656 27.8206 22.2821 27.4737C22.9167 27.1268 23.5683 26.5768 24.2367 25.8322C24.7274 25.2738 25.0997 24.7238 25.3451 24.1738C25.599 23.6069 25.7597 23.0062 25.8359 22.397V10.9996L24.9474 11.0589L22.1637 9.18893L20.1499 10.8473L19.4984 10.492V4.85676L18.9061 3.57911L16.2662 6.1598V20.7724L15.4624 21.7201L18.2715 24.453ZM27.1051 21.2208L31.8772 24.2415L36.4125 19.4694L33.9502 21.2208L30.9296 19.0548V17.041L36.3279 13.005L32.8926 8.37665L27.4097 12.2011V20.5609L27.1051 21.2208ZM42.97 6.3121V11.8542C42.5723 11.8965 42.2507 11.9642 42.0054 12.0658C41.76 12.1673 41.4977 12.3365 41.2185 12.5734C40.4231 13.1911 40.0339 13.978 40.0339 14.9426C40.0254 15.2472 40.0677 15.5433 40.1523 15.831C40.4316 15.5941 40.7023 15.4333 40.9646 15.3572C41.2354 15.281 41.5654 15.2387 41.9631 15.2387C42.1577 15.2387 42.3184 15.2641 42.4369 15.298C42.5553 15.3403 42.733 15.4164 42.97 15.5349V20.9839L47.0652 25.1046L50.8305 21.2801L55.3657 25.1046L61.974 18.6994V7.73359L57.8787 4.59446L54.858 7.31899L50.7374 4.59446L47.0652 7.67436V5.87211C47.0652 5.27983 46.6421 4.61139 45.7876 3.85833C45.5337 3.68065 45.2883 3.4945 45.0599 3.30835C44.8314 3.1222 44.6961 2.85144 44.6622 2.50453C44.6284 2.22531 44.6114 1.94609 44.603 1.65841C44.603 0.989967 44.8314 0.448447 45.2883 0.0592288C45.1191 0.0253838 44.9499 0.00846126 44.7807 0C43.8922 0 43.1053 0.372295 42.4284 1.10842C41.7431 1.85302 41.4046 2.67376 41.4046 3.58757C41.4046 3.72295 41.4215 3.91756 41.4638 4.15448C41.6331 5.11906 42.1323 5.83827 42.97 6.3121ZM62.7693 21.3731L66.4415 23.9538L69.1068 21.4324L72.2798 23.6577L75.0043 20.7216H74.0567L72.8467 19.4694V10.7881L72.1952 10.9066L69.1153 8.32588L63.277 12.3534V20.857L62.7693 21.3731ZM80.4534 8.90124C80.0811 8.72356 79.7257 8.4951 79.4042 8.2328L74.5728 11.6427V17.3963L75.0213 17.7517H77.8981L74.1667 24.2415C74.742 23.7508 75.182 23.4208 75.5035 23.26C75.952 23.04 76.4512 22.93 76.9589 22.93C77.5935 22.93 78.1012 23.0062 78.4988 23.15C78.8965 23.2938 79.3027 23.5561 79.7173 23.9369L84.4556 20.2055V14.3672L84.1002 14.0118H80.9272V13.7157L83.7448 8.76586C83.4487 8.94355 83.2118 9.04509 83.0341 9.07893C82.7464 9.11278 82.4587 9.1297 82.171 9.12124H81.5449C81.1641 9.1297 80.7918 9.05355 80.4534 8.90124ZM87.967 24.0384L90.5731 21.1362L89.27 19.774V12.0658L89.9808 11.5581L92.0876 13.1573V23.2938C92.0961 23.7846 92.0622 24.2754 91.9861 24.7661C91.9184 25.1469 91.7576 25.5022 91.4953 25.8153C91.3346 26.0099 91.123 26.2976 90.8438 26.6783C90.4884 27.0929 90.0569 27.4314 89.5662 27.6852C90.4715 27.6091 91.2838 27.3891 91.9861 27.0253C92.6884 26.6614 93.3484 26.1199 93.9576 25.4092C94.4145 24.8761 94.7699 24.3177 95.0237 23.7338C95.2775 23.15 95.4468 22.5493 95.5314 21.94V10.5512L94.6683 10.6443L91.8507 8.77432L89.8369 10.4073L89.1854 10.052V4.44216L88.6185 3.13913L85.9532 5.71981V20.3662L85.1494 21.2801L87.967 24.0384ZM102.224 6.52363L99.5589 4.35755L97.3928 6.7267L99.6435 8.77432L102.224 6.52363ZM98.0444 13.2165V21.2801L97.4775 22.1431H98.4844L100.794 24.0977L103.223 21.8724L106.336 24.3938L109.061 21.3731L108.198 20.2816V12.7257L108.909 12.3704L110.482 14.088V21.4916L113.241 23.8946L115.906 20.8739H114.662L113.952 19.7147V11.6512L114.307 10.9066L113.596 11.0589L110.872 8.89278L108.206 11.6512L105.093 9.18893L102.512 12.0658H103.519L104.382 13.0726V20.4762L102.664 21.0685L101.564 20.2055V11.905L101.92 11.3973L98.8397 9.11278L96.3183 11.7781L97.1813 12.0488L98.0444 13.2165ZM151.342 21.0178L150.487 19.9178V12.3619L151.198 12.0065L152.772 13.7242V21.1616L155.53 23.5308L158.196 20.5101H156.952L156.241 19.3509V11.2873L156.596 10.5766L155.886 10.695L153.161 8.52895L150.496 11.2873L147.382 8.82509L144.801 11.7019H145.808L146.671 12.7088V20.1463L145.605 21.5677L148.897 23.7338L151.342 21.0178ZM116.481 21.077C116.879 21.077 117.235 21.1278 117.565 21.2293C117.895 21.3308 118.208 21.5001 118.529 21.7454C118.842 21.9908 119.079 22.2277 119.223 22.4562C119.367 22.6846 119.494 22.9977 119.595 23.3869L118.055 25.3753L116.422 27.5668C116.837 27.3299 117.192 27.186 117.488 27.1353C117.785 27.0845 118.216 27.0591 118.791 27.0591C119.46 27.1183 120.035 27.2791 120.509 27.5329C120.983 27.7868 121.414 28.176 121.812 28.6921C122.76 28.3368 123.86 27.5414 125.12 26.323C126.381 25.0961 127.007 24.0892 127.007 23.3023C127.007 23.1669 126.863 22.7354 126.576 22.0331C126.288 21.3139 126.144 20.5524 126.144 19.774V10.5512L122.024 7.97051L116.837 11.6427V20.417L116.481 21.077ZM126.711 10.9404H128.429V21.2293L128.014 22.0331H129.021L131.187 23.6915L133.971 20.5186H132.752L131.949 19.6555V11.1435L133.7 8.9774H131.949V3.31681L128.42 6.60824V8.85894L126.711 10.9404ZM134.208 21.077L137.88 23.6831L144.285 19.2071V10.492L143.634 10.6443L140.545 8.0382L134.707 12.0658V20.5778L134.208 21.077ZM164.296 6.37133V9.1297C163.78 9.1297 163.348 9.18047 162.993 9.29046C162.638 9.40046 162.299 9.61199 161.969 9.92506C161.639 10.2381 161.453 10.6104 161.394 11.025C161.335 11.4396 161.301 11.9811 161.301 12.658C161.301 12.9373 161.292 13.1234 161.267 13.2249C161.699 12.5311 162.308 12.2434 163.078 12.3619C163.594 12.4381 164 12.658 164.296 13.0134V17.6079C163.391 18.0817 162.595 18.7078 161.927 19.4778C161.174 20.3662 160.666 21.2801 160.412 22.2362C160.751 21.9739 161.106 21.737 161.479 21.5424C161.775 21.3901 162.189 21.2462 162.722 21.0855C162.917 21.0262 163.145 20.9585 163.408 20.8908C163.662 20.8232 163.958 20.7893 164.296 20.7893V29.6482L168.18 26.4753L169.483 27.4229V22.38L171.141 22.9469L176.743 19.0632V6.01595L173.155 3.13913L169.483 6.21902V4.59446L168.772 4.00218V6.60824L168.18 7.02284V4.29832L165.159 1.97993L161.572 5.50828C161.868 5.33059 162.172 5.23752 162.485 5.23752C162.739 5.23752 162.993 5.27983 163.23 5.35598C163.763 5.55905 164.118 5.8975 164.296 6.37133ZM177.25 21.3731L180.923 23.9538L187.353 19.4778V10.7881L186.702 10.9066L183.588 8.32588L177.75 12.3534V20.857L177.25 21.3731ZM194.266 8.77432C193.885 8.58818 193.513 8.36818 193.166 8.12281L188.36 11.4988V17.2525L188.775 17.6079H191.651L187.92 24.0977C188.335 23.7423 188.682 23.48 188.961 23.2938C189.477 22.9554 190.069 22.7862 190.738 22.7862C191.355 22.7862 191.854 22.8623 192.252 23.0062C192.65 23.1585 193.056 23.4123 193.471 23.7931L198.217 20.0616V14.2234L197.862 13.868H194.689V13.5719L197.507 8.62202C197.21 8.79971 196.974 8.90124 196.796 8.93509C196.618 8.96893 196.33 8.9774 195.933 8.9774H195.315C194.909 8.9774 194.562 8.90971 194.266 8.77432ZM198.294 11.0842H200.011V21.3731L199.597 22.177H200.603L202.736 23.8354L205.553 20.6624H204.335L203.531 19.7993V11.2958L205.249 9.1297H203.531V3.46912L200.02 6.76055V9.01124L198.294 11.0842ZM66.7969 11.355L69.1068 13.0726V19.977L68.3622 20.7809L66.7884 19.4186L66.7969 11.355ZM124.19 23.5054C124.664 23.8438 124.9 24.2669 124.9 24.783C124.9 25.0199 124.875 25.1976 124.841 25.3161C124.723 25.4938 124.63 25.6122 124.57 25.6715C124.41 25.8322 124.207 25.9338 123.978 25.9676C123.724 26.0099 123.386 25.883 122.971 25.5953C122.557 25.3076 121.931 25.1638 121.101 25.1638C120.568 25.1638 120.086 25.2146 119.646 25.3161C119.214 25.4176 118.758 25.5868 118.284 25.8238L122.616 20.4847V21.1701C122.616 21.5677 122.65 21.8893 122.717 22.1516C122.785 22.4054 122.937 22.6593 123.174 22.8962C123.513 23.0992 123.851 23.3108 124.19 23.5054ZM120.365 10.9996L122.616 12.658V19.3594L121.964 20.0701L120.365 18.4709V10.9996ZM30.9296 16.1864V11.8542L33.0956 14.5787L30.9296 16.1864ZM81.7141 11.2958L79.7003 14.8834H78.1858V10.9996C78.778 11.3719 79.4211 11.5665 80.1149 11.5665C80.6649 11.5581 81.198 11.4735 81.7141 11.2958ZM138.235 11.0589L140.545 12.8103V19.7147L139.809 20.5186L138.235 19.1224V11.0589ZM78.7442 17.041H80.9103V20.8655C80.6057 20.7555 80.2926 20.6709 79.9796 20.6116C79.768 20.5862 79.345 20.5693 78.6934 20.5693C78.3127 20.5609 77.9404 20.6032 77.5681 20.6878C77.255 20.7639 76.8743 20.8993 76.4427 21.077L78.7442 17.041ZM168.18 8.9774L168.772 8.46972V25.3922L168.18 25.0369V8.9774ZM169.483 8.02973L171.294 6.87054L172.597 7.8182V18.9617C171.979 18.6063 171.649 18.4202 171.59 18.3948L170.938 18.1832C170.456 18.0648 169.965 17.9463 169.483 17.8279V8.02973ZM11.0963 9.33277C11.291 9.33277 11.4517 9.31585 11.5702 9.27354V20.0616C10.8256 20.4339 10.0048 20.6285 9.16717 20.6285C8.67642 20.6285 8.1772 20.5693 7.68645 20.4509C7.1957 20.3324 6.80648 20.1716 6.52726 19.977L9.9033 16.601V9.18893C10.0471 9.26508 10.1994 9.31585 10.3602 9.32431C10.5294 9.33277 10.6394 9.34123 10.6987 9.34123L11.0963 9.33277ZM181.286 11.355L183.596 13.0726V19.977L182.886 20.7809L181.286 19.4186V11.355ZM47.0568 8.53741L48.1567 7.67436L50.4413 9.98428V20.6285L49.519 21.5762L47.0568 19.2071V8.53741ZM194.74 11.355C194.994 11.3127 195.247 11.245 195.476 11.1435L193.462 14.7311H191.948V10.8473C192.531 11.2196 193.208 11.4142 193.902 11.4142C194.207 11.4142 194.486 11.3889 194.74 11.355ZM192.514 16.8971H194.681V20.7216C194.376 20.6116 194.063 20.527 193.75 20.4678C193.538 20.4339 193.115 20.4255 192.455 20.4255C192.074 20.417 191.694 20.4593 191.33 20.5439C190.958 20.6455 190.585 20.7724 190.23 20.9332L192.514 16.8971ZM54.8496 8.53741L55.9242 7.67436L58.2341 9.98428V20.6285L57.2864 21.5762L54.858 19.2071L54.8496 8.53741Z" fill="#344054"/>
</g>
<defs>
<clipPath id="clip0_14865_2432">
<rect width="205.625" height="30" fill="white" transform="translate(0.25)"/>
</clipPath>
</defs>
</svg>
