<svg width="125" height="30" viewBox="0 0 125 30" fill="none" xmlns="http://www.w3.org/2000/svg">
<g clip-path="url(#clip0_14865_2435)">
<path d="M20.8835 21.3016V7.74134C20.8835 7.03589 21.0398 6.50681 21.3719 6.15408C21.6845 5.80136 22.1142 5.625 22.6222 5.625C23.1496 5.625 23.5794 5.80136 23.892 6.15408C24.2241 6.50681 24.3804 7.03589 24.3804 7.74134V21.3016C24.3804 22.007 24.2241 22.5557 23.892 22.9084C23.5599 23.2611 23.1496 23.4375 22.6222 23.4375C22.1142 23.4375 21.704 23.2611 21.3914 22.9084C21.0593 22.5361 20.8835 22.007 20.8835 21.3016Z" fill="#344054"/>
<path d="M115.416 23.4179C110.533 23.4179 106.547 19.4204 106.547 14.5214C106.547 9.62252 110.533 5.625 115.416 5.625C120.3 5.625 124.286 9.62252 124.286 14.5214C124.286 19.44 120.32 23.4179 115.416 23.4179ZM115.416 9.23061C112.506 9.23061 110.142 11.6017 110.142 14.5214C110.142 17.4412 112.506 19.8123 115.416 19.8123C118.327 19.8123 120.691 17.4412 120.691 14.5214C120.691 11.6213 118.327 9.23061 115.416 9.23061Z" fill="#344054"/>
<path d="M75.6223 23.4179C70.7384 23.4179 66.7532 19.4204 66.7532 14.5214C66.7532 9.62252 70.7384 5.625 75.6223 5.625C80.5063 5.625 84.4915 9.62252 84.4915 14.5214C84.4915 19.44 80.5063 23.4179 75.6223 23.4179ZM75.6223 9.23061C72.7115 9.23061 70.3477 11.6017 70.3477 14.5214C70.3477 17.4412 72.7115 19.8123 75.6223 19.8123C78.5332 19.8123 80.897 17.4412 80.897 14.5214C80.897 11.6213 78.5332 9.23061 75.6223 9.23061Z" fill="#344054"/>
<path d="M103.715 14.5215C103.715 12.5619 103.07 10.7395 101.995 9.2698C100.433 7.13387 97.932 5.72298 95.0994 5.625C95.0017 5.625 94.9235 5.625 94.8259 5.625H90.3717C89.6098 5.625 89.0628 5.80136 88.7307 6.15408C88.3986 6.50681 88.2228 7.05549 88.2228 7.83932V21.2232C88.2228 22.007 88.3986 22.5557 88.7307 22.9084C89.0628 23.2611 89.6294 23.4375 90.3717 23.4375H94.8259C94.9235 23.4375 95.0017 23.4375 95.0994 23.4375C97.932 23.3591 100.413 21.9482 101.995 19.7927C103.07 18.3034 103.715 16.481 103.715 14.5215ZM95.4705 19.7731C95.0407 19.7927 94.5719 19.8123 94.0835 19.8123H91.7587V9.23061H94.0835C94.5719 9.23061 95.0407 9.23061 95.4705 9.2698C97.0139 9.44616 98.3423 10.3084 99.1823 11.5233C99.7684 12.3659 100.12 13.4045 100.12 14.5215C100.12 15.6384 99.7684 16.6574 99.1823 17.5C98.3423 18.7541 97.0139 19.5967 95.4705 19.7731Z" fill="#344054"/>
<path d="M61.7325 5.70334C61.0878 5.50738 60.3845 5.76212 60.0133 6.3304L54.6606 14.5018L49.3078 6.3304C48.9366 5.76212 48.2333 5.50738 47.5887 5.70334C46.944 5.89929 46.4947 6.52636 46.4947 7.21221V21.7326C46.4947 22.5948 47.1784 23.3199 48.038 23.3199C48.878 23.3199 49.5813 22.6144 49.5813 21.7326V12.3855L53.3712 18.1858C53.3712 18.1858 53.3712 18.1858 53.3712 18.2054C53.3712 18.2054 53.3712 18.225 53.3907 18.225C53.4103 18.2642 53.4298 18.3034 53.4689 18.323C53.4884 18.3426 53.4884 18.3426 53.508 18.3622C53.5275 18.3818 53.547 18.4209 53.5666 18.4405C53.5861 18.4601 53.6056 18.4797 53.6252 18.4993C53.6447 18.5189 53.6642 18.5189 53.6642 18.5385C53.7033 18.5581 53.7229 18.5777 53.7619 18.6169L53.7815 18.6365C53.8205 18.6561 53.8596 18.6757 53.8791 18.6953C53.8987 18.6953 53.8987 18.7149 53.8987 18.7149C53.9182 18.7345 53.9573 18.7345 53.9768 18.7541C54.1331 18.8325 54.2894 18.8716 54.4652 18.8912C54.5043 18.8912 54.5238 18.8912 54.5629 18.8912C54.5824 18.8912 54.602 18.8912 54.6215 18.8912C54.641 18.8912 54.6606 18.8912 54.6801 18.8912C54.7192 18.8912 54.7387 18.8912 54.7778 18.8912C54.9341 18.8716 55.1099 18.8325 55.2662 18.7541C55.2857 18.7345 55.3248 18.7345 55.3443 18.7149L55.3638 18.6953C55.4029 18.6757 55.442 18.6561 55.4615 18.6365C55.4811 18.6365 55.4811 18.6169 55.4811 18.6169C55.5201 18.5973 55.5397 18.5777 55.5787 18.5385C55.5983 18.5189 55.6178 18.5189 55.6178 18.4993C55.6373 18.4797 55.6569 18.4601 55.6764 18.4405C55.6959 18.4209 55.7155 18.4014 55.735 18.3622C55.7546 18.3426 55.7546 18.3426 55.7741 18.323C55.7936 18.2838 55.8327 18.2642 55.8522 18.225L55.8718 18.2054C55.8718 18.2054 55.8718 18.2054 55.8718 18.1858L59.6617 12.3855V21.7326C59.6617 22.5948 60.3454 23.3199 61.205 23.3199C62.045 23.3199 62.7483 22.6144 62.7483 21.7326V7.21221C62.8264 6.52636 62.3771 5.89929 61.7325 5.70334Z" fill="#344054"/>
<path d="M41.2591 22.8888H29.7526C29.147 22.8888 28.4828 22.5165 28.2289 21.9286C27.9749 21.3408 27.9358 20.5373 28.4633 19.8907L37.8599 8.93667H30.0848C29.2447 8.93667 28.5414 8.19204 28.5414 7.29063C28.5414 6.38923 29.2252 5.82096 30.0848 5.82096H40.5558C41.1615 5.82096 41.7866 5.91894 42.3336 6.5264C42.8415 7.07508 42.8025 8.27042 42.2555 8.97586L33.1714 19.5967H41.2591C42.1187 19.5967 42.7243 20.3414 42.7243 21.2428C42.7243 22.1442 42.1187 22.8888 41.2591 22.8888Z" fill="#344054"/>
<path d="M9.43558 23.4179C6.87641 23.4179 4.5712 22.3989 2.91067 20.5569C1.46503 18.9501 0.625 16.8141 0.625 14.6978C0.625 8.09406 6.09498 5.625 9.55279 5.625C12.952 5.625 15.433 7.29063 15.5502 7.36902C16.3121 7.8981 16.527 8.93667 15.9996 9.7205C15.4916 10.5043 14.4562 10.7003 13.6943 10.1908C13.6553 10.1712 11.8775 9.01506 9.55279 9.01506C7.38433 9.01506 4.39538 10.4455 4.39538 14.6978C4.39538 17.1081 6.19266 19.9691 9.47465 19.9691C11.3305 19.9691 12.6199 19.4792 13.3818 18.9893V16.481H10.8421C9.92397 16.481 9.18161 15.7168 9.18161 14.7958C9.18161 13.8552 9.92397 13.1106 10.8421 13.1106H15.0814C15.9996 13.1106 16.7419 13.8748 16.7419 14.7958V19.8319C16.7419 20.2826 16.5661 20.7333 16.234 21.0468C15.1204 22.1442 12.659 23.4179 9.43558 23.4179Z" fill="#344054"/>
</g>
<defs>
<clipPath id="clip0_14865_2435">
<rect width="123.75" height="30" fill="white" transform="translate(0.625)"/>
</clipPath>
</defs>
</svg>
