<svg width="69" height="45" viewBox="0 0 69 45" fill="none" xmlns="http://www.w3.org/2000/svg">
<g clip-path="url(#clip0_10921_22868)">
<path opacity="0.05" d="M34.2593 44.6212C53.1801 44.6212 68.5185 34.7597 68.5185 22.5948C68.5185 10.4299 53.1801 0.568359 34.2593 0.568359C15.3384 0.568359 0 10.4299 0 22.5948C0 34.7597 15.3384 44.6212 34.2593 44.6212Z" fill="white"/>
<path d="M47.9635 17.2448C46.937 17.5365 45.849 17.7289 44.7349 17.8157C45.9098 17.3635 46.7889 16.6521 47.2084 15.814C46.1056 16.2375 44.8975 16.5355 43.6372 16.695C42.8673 16.1637 41.8662 15.7938 40.7644 15.6338C39.6627 15.4737 38.5115 15.5308 37.461 15.7978C36.4105 16.0647 35.5096 16.529 34.8757 17.13C34.2418 17.7311 33.9044 18.4411 33.9076 19.1673C33.9054 19.4452 33.9542 19.7223 34.0528 19.9928C31.8153 19.9212 29.6264 19.5469 27.6289 18.8946C25.6315 18.2422 23.8705 17.3264 22.4609 16.2069C21.7414 17.0042 21.5218 17.9477 21.8467 18.8455C22.1716 19.7432 23.0165 20.5275 24.2095 21.0386C23.3129 21.0244 22.4355 20.8692 21.6537 20.5867V20.6316C21.6529 21.4672 22.1019 22.2772 22.9245 22.9241C23.7471 23.571 24.8925 24.0149 26.1664 24.1805C25.6835 24.2647 25.1853 24.3074 24.685 24.3074C24.3302 24.3078 23.9762 24.2854 23.6284 24.2404C23.9877 24.9594 24.6876 25.5881 25.6302 26.0387C26.5728 26.4892 27.7108 26.739 28.8852 26.7532C26.8927 27.7601 24.4306 28.3061 21.8963 28.303C21.4479 28.3026 20.9999 28.2853 20.5547 28.251C23.1156 29.3224 26.1067 29.8906 29.162 29.8862C31.2696 29.8957 33.3591 29.6358 35.309 29.1215C37.259 28.6072 39.0305 27.8489 40.5206 26.8905C42.0106 25.9322 43.1895 24.7929 43.9888 23.5391C44.788 22.2852 45.1916 20.9417 45.1761 19.5867C45.1761 19.4298 45.1761 19.273 45.1583 19.1197C46.2591 18.6068 47.209 17.9719 47.9635 17.2448Z" fill="white"/>
</g>
<defs>
<clipPath id="clip0_10921_22868">
<rect width="68.5185" height="44.0529" fill="white" transform="translate(0 0.568359)"/>
</clipPath>
</defs>
</svg>
