<svg width="22" height="22" viewBox="0 0 22 22" fill="none" xmlns="http://www.w3.org/2000/svg">
<path d="M8.27237 19.1817C8.77445 19.1817 9.18146 18.7747 9.18146 18.2726C9.18146 17.7705 8.77445 17.3635 8.27237 17.3635C7.7703 17.3635 7.36328 17.7705 7.36328 18.2726C7.36328 18.7747 7.7703 19.1817 8.27237 19.1817Z" stroke="#A29061" stroke-width="1.75" stroke-linecap="round" stroke-linejoin="round"/>
<path d="M17.3632 19.1817C17.8653 19.1817 18.2723 18.7747 18.2723 18.2726C18.2723 17.7705 17.8653 17.3635 17.3632 17.3635C16.8611 17.3635 16.4541 17.7705 16.4541 18.2726C16.4541 18.7747 16.8611 19.1817 17.3632 19.1817Z" stroke="#A29061" stroke-width="1.75" stroke-linecap="round" stroke-linejoin="round"/>
<path d="M1.83301 1.83325H5.16634L7.39967 12.9916C7.47588 13.3752 7.6846 13.7199 7.9893 13.9652C8.29399 14.2104 8.67526 14.3407 9.06634 14.3333H17.1663C17.5574 14.3407 17.9387 14.2104 18.2434 13.9652C18.5481 13.7199 18.7568 13.3752 18.833 12.9916L20.1663 5.99992H5.99967" stroke="#A29061" stroke-width="1.75" stroke-linecap="round" stroke-linejoin="round"/>
</svg>
