<svg width="48" height="48" viewBox="0 0 48 48" fill="none" xmlns="http://www.w3.org/2000/svg">
<path d="M5.60815 30.9541C5.60815 30.9541 5.89215 34.4301 5.95815 35.5261C6.04615 36.9961 6.61415 38.6381 7.56215 39.7781C8.90015 41.3941 10.4762 41.9641 12.5802 41.9681C15.0542 41.9721 33.0442 41.9721 35.5182 41.9681C37.6222 41.9641 39.1982 41.3941 40.5362 39.7781C41.4842 38.6381 42.0522 36.9961 42.1422 35.5261C42.2062 34.4301 42.4902 30.9541 42.4902 30.9541" stroke="#A29061" stroke-width="3" stroke-linecap="round" stroke-linejoin="round"/>
<path d="M16.9919 10.659V9.91698C16.9919 7.47698 18.9679 5.50098 21.4079 5.50098H26.5719C29.0099 5.50098 30.9879 7.47698 30.9879 9.91698L30.9899 10.659" stroke="#A29061" stroke-width="3" stroke-linecap="round" stroke-linejoin="round"/>
<path d="M23.99 33.3566V30.7686" stroke="#A29061" stroke-width="3" stroke-linecap="round" stroke-linejoin="round"/>
<path fill-rule="evenodd" clip-rule="evenodd" d="M5.49976 16.7781V23.7121C9.33576 26.2421 13.9318 28.0141 18.9758 28.7161C19.5798 26.5141 21.5658 24.9001 23.9798 24.9001C26.3558 24.9001 28.3818 26.5141 28.9458 28.7361C34.0098 28.0341 38.6238 26.2621 42.4798 23.7121V16.7781C42.4798 13.3901 39.7538 10.6621 36.3658 10.6621H11.6338C8.24576 10.6621 5.49976 13.3901 5.49976 16.7781Z" stroke="#A29061" stroke-width="3" stroke-linecap="round" stroke-linejoin="round"/>
</svg>
