<svg width="48" height="48" viewBox="0 0 48 48" fill="none" xmlns="http://www.w3.org/2000/svg">
<path fill-rule="evenodd" clip-rule="evenodd" d="M24 2.00012L46 13.0064V21.1649H2V13.0064L24 2.00012ZM24 16.0852C25.8693 16.0852 27.3846 14.5689 27.3846 12.6985C27.3846 10.8281 25.8693 9.3119 24 9.3119C22.1307 9.3119 20.6154 10.8281 20.6154 12.6985C20.6154 14.5689 22.1307 16.0852 24 16.0852Z" fill="#A29061"/>
<path d="M41.4872 36.9693V23.4228H35.8462V36.9693H41.4872Z" fill="#A29061"/>
<path d="M4.25641 39.2271V42.6137H2V46.0004H46V42.6137H43.7436V39.2271H4.25641Z" fill="#A29061"/>
<path d="M31.7845 23.4228V36.9693H26.1435V23.4228H31.7845Z" fill="#A29061"/>
<path d="M21.8565 23.4228V36.9693H16.2155V23.4228H21.8565Z" fill="#A29061"/>
<path d="M12.1538 23.4228V36.9693H6.51282L6.51282 23.4228H12.1538Z" fill="#A29061"/>
</svg>
