<svg width="16" height="16" viewBox="0 0 16 16" fill="none" xmlns="http://www.w3.org/2000/svg">
<path d="M14.6537 5.25337C14.6224 4.54492 14.5079 4.05786 14.3437 3.63583C14.1744 3.18784 13.914 2.78676 13.5727 2.45334C13.2393 2.11474 12.8356 1.85162 12.3928 1.68497C11.9683 1.52085 11.4838 1.40629 10.7753 1.37505C10.0616 1.34117 9.83502 1.33333 8.02477 1.33333C6.21452 1.33333 5.98794 1.34117 5.27684 1.3724C4.56839 1.40364 4.08134 1.51831 3.6594 1.68232C3.21132 1.85162 2.81024 2.11209 2.47682 2.45334C2.13821 2.78676 1.8752 3.19049 1.70844 3.63328C1.54433 4.05786 1.42976 4.54227 1.39853 5.25072C1.36465 5.96447 1.35681 6.19105 1.35681 8.0013C1.35681 9.81155 1.36465 10.0381 1.39588 10.7492C1.42712 11.4577 1.54178 11.9447 1.7059 12.3668C1.8752 12.8148 2.13821 13.2158 2.47682 13.5493C2.81024 13.8879 3.21396 14.151 3.65676 14.3176C4.08134 14.4818 4.56575 14.5963 5.2743 14.6276C5.98529 14.6589 6.21198 14.6666 8.02223 14.6666C9.83247 14.6666 10.0591 14.6589 10.7702 14.6276C11.4786 14.5963 11.9657 14.4818 12.3876 14.3176C13.2837 13.9712 13.9921 13.2627 14.3386 12.3668C14.5026 11.9422 14.6172 11.4577 14.6485 10.7492C14.6797 10.0381 14.6875 9.81155 14.6875 8.0013C14.6875 6.19105 14.6849 5.96447 14.6537 5.25337ZM13.453 10.6971C13.4243 11.3483 13.3149 11.6999 13.2237 11.9344C12.9997 12.5152 12.5387 12.9762 11.9578 13.2003C11.7234 13.2914 11.3692 13.4008 10.7206 13.4294C10.0173 13.4607 9.80643 13.4685 8.02742 13.4685C6.24841 13.4685 6.03484 13.4607 5.33412 13.4294C4.68296 13.4008 4.33133 13.2914 4.09691 13.2003C3.80785 13.0934 3.54474 12.9241 3.33117 12.7027C3.10978 12.4865 2.94047 12.2261 2.83364 11.937C2.74248 11.7026 2.6331 11.3483 2.60451 10.6998C2.57317 9.99652 2.56544 9.78551 2.56544 8.00649C2.56544 6.22748 2.57317 6.01392 2.60451 5.3133C2.6331 4.66213 2.74248 4.3105 2.83364 4.07608C2.94047 3.78692 3.10978 3.52391 3.33382 3.31024C3.54992 3.08884 3.81039 2.91954 4.09955 2.81281C4.33397 2.72165 4.68825 2.61227 5.33677 2.58358C6.04003 2.55234 6.25105 2.54451 8.02996 2.54451C9.81162 2.54451 10.0225 2.55234 10.7233 2.58358C11.3744 2.61227 11.7261 2.72165 11.9605 2.81281C12.2495 2.91954 12.5126 3.08884 12.7262 3.31024C12.9476 3.52645 13.1169 3.78692 13.2237 4.07608C13.3149 4.3105 13.4243 4.66467 13.453 5.3133C13.4842 6.01656 13.492 6.22748 13.492 8.00649C13.492 9.78551 13.4842 9.99388 13.453 10.6971Z" fill="white" fill-opacity="0.5"/>
<path d="M8.02477 4.57615C6.13384 4.57615 4.59962 6.11027 4.59962 8.00131C4.59962 9.89235 6.13384 11.4265 8.02477 11.4265C9.9158 11.4265 11.4499 9.89235 11.4499 8.00131C11.4499 6.11027 9.9158 4.57615 8.02477 4.57615ZM8.02477 10.2231C6.79803 10.2231 5.80296 9.22815 5.80296 8.00131C5.80296 6.77446 6.79803 5.7795 8.02477 5.7795C9.25161 5.7795 10.2466 6.77446 10.2466 8.00131C10.2466 9.22815 9.25161 10.2231 8.02477 10.2231Z" fill="white" fill-opacity="0.5"/>
<path d="M12.3851 4.44073C12.3851 4.88231 12.027 5.24035 11.5854 5.24035C11.1438 5.24035 10.7857 4.88231 10.7857 4.44073C10.7857 3.99906 11.1438 3.64112 11.5854 3.64112C12.027 3.64112 12.3851 3.99906 12.3851 4.44073Z" fill="white" fill-opacity="0.5"/>
</svg>
