<svg width="16" height="16" viewBox="0 0 16 16" fill="none" xmlns="http://www.w3.org/2000/svg">
<path d="M14.6633 14.6667V14.6661H14.6667V9.77611C14.6667 7.38389 14.1517 5.54111 11.355 5.54111C10.0106 5.54111 9.10833 6.27889 8.74 6.97833H8.70111V5.76444H6.04944V14.6661H8.81055V10.2583C8.81055 9.09778 9.03056 7.97556 10.4678 7.97556C11.8839 7.97556 11.905 9.3 11.905 10.3328V14.6667H14.6633Z" fill="white" fill-opacity="0.5"/>
<path d="M1.55334 5.765H4.31779V14.6667H1.55334V5.765Z" fill="white" fill-opacity="0.5"/>
<path d="M2.93449 1.33333C2.0506 1.33333 1.33337 2.05056 1.33337 2.93445C1.33337 3.81833 2.0506 4.55056 2.93449 4.55056C3.81837 4.55056 4.5356 3.81833 4.5356 2.93445C4.53504 2.05056 3.81782 1.33333 2.93449 1.33333V1.33333Z" fill="white" fill-opacity="0.5"/>
</svg>
