<svg width="1920" height="522" viewBox="0 0 1920 522" fill="none" xmlns="http://www.w3.org/2000/svg">
<mask id="mask0_12924_24120" style="mask-type:alpha" maskUnits="userSpaceOnUse" x="0" y="0" width="1920" height="522">
<path d="M437 435H379.5L352 434L313.5 440.5H268.5L218 436.5L172 429.5L88.5 410.5L21.5 394L0 390V0H1920V521.5L1852 514.5L1740 484L1663 463L1609.5 448H1605L1577.5 463L1545 476.5L1517 474.5L1476 470.5L1447 469.5L1407 468H1366L1350.5 469.5L1336.5 470.5L1295 455.5L1273.5 447.5L1253 444L1235.5 442.5L1194.5 444L1177 451.5L1123.5 473L1078.5 489L1042 498.5L1002.5 503.5L947.5 505L875.5 501.5L805 494.5L730.5 474L667 459L618 451L577.5 449H549.5L517.5 443L494 440.5L437 435Z" fill="black"/>
</mask>
<g mask="url(#mask0_12924_24120)">
<path opacity="0.1" d="M671.197 528V463H498.697V412L662.697 178H735.197V407.5H781.197V463H735.197V528H671.197ZM567.197 407.5H675.197V248.5L567.197 407.5ZM960.01 534C927.676 534 900.01 526.5 877.01 511.5C854.01 496.167 836.176 475 823.51 448C811.176 420.667 805.01 389 805.01 353C805.01 317.333 811.176 285.833 823.51 258.5C836.176 231.167 854.01 210 877.01 195C900.01 179.667 927.676 172 960.01 172C992.343 172 1020.01 179.667 1043.01 195C1066.01 210 1083.68 231.167 1096.01 258.5C1108.68 285.833 1115.01 317.333 1115.01 353C1115.01 389 1108.68 420.667 1096.01 448C1083.68 475 1066.01 496.167 1043.01 511.5C1020.01 526.5 992.343 534 960.01 534ZM960.01 476.5C986.343 476.5 1007.84 465.5 1024.51 443.5C1041.18 421.5 1049.51 391.333 1049.51 353C1049.51 314.667 1041.18 284.5 1024.51 262.5C1007.84 240.5 986.343 229.5 960.01 229.5C933.343 229.5 911.676 240.5 895.01 262.5C878.676 284.5 870.51 314.667 870.51 353C870.51 391.333 878.676 421.5 895.01 443.5C911.676 465.5 933.343 476.5 960.01 476.5ZM1316.49 528V463H1143.99V412L1307.99 178H1380.49V407.5H1426.49V463H1380.49V528H1316.49ZM1212.49 407.5H1320.49V248.5L1212.49 407.5Z" fill="white"/>
</g>
</svg>
