<svg width="98" height="60" viewBox="0 0 98 60" fill="none" xmlns="http://www.w3.org/2000/svg">
<path d="M42.2811 30.0075L42.2591 29.968L42.018 30.3865L27.9381 5.09092C27.2204 3.76124 26.1367 2.90537 24.1956 2.04443L34.0249 2.10824L44.8719 20.8859L55.7191 2.42332L55.7411 2.46286L55.9822 2.04443L70.0621 27.34C70.7798 28.6696 71.8635 29.5255 73.8047 30.3865L63.9753 30.3227L53.1283 11.545L42.2811 30.0075Z" fill="white"/>
<path fill-rule="evenodd" clip-rule="evenodd" d="M75.8048 3.84261H75.3215V1.07673L75.8868 1.07673C76.3223 1.07669 76.7817 1.07664 77.0136 1.42559C77.1965 1.70119 77.2222 2.37188 76.5568 2.52685C76.5756 2.54312 76.5921 2.55228 76.6091 2.5617C76.6554 2.58743 76.7053 2.61511 76.8128 2.79453C76.8546 2.86428 77.3029 3.77281 77.3087 3.84261H76.7045C76.6721 3.78142 76.5979 3.60762 76.5188 3.4224C76.413 3.17471 76.2985 2.9066 76.2637 2.86007C76.1448 2.70124 76.0275 2.70125 75.8496 2.70126H75.8451V3.80233C75.8451 3.83334 75.8358 3.84261 75.8048 3.84261ZM75.8451 2.28513H76.0868C76.342 2.28513 76.5702 2.15911 76.5702 1.90914C76.5702 1.5155 76.2392 1.51753 75.914 1.51952C75.891 1.51966 75.868 1.5198 75.8451 1.5198V2.28513Z" fill="white"/>
<path fill-rule="evenodd" clip-rule="evenodd" d="M73.8234 3.28636C73.7077 2.98744 73.6835 2.70337 73.6835 2.37919C73.6835 2.14328 73.7447 1.8324 73.8272 1.62333C73.8339 1.60643 73.8393 1.59094 73.8447 1.57568C73.8516 1.55614 73.8583 1.53698 73.8673 1.51577L74.0165 1.22168C74.1471 1.00333 74.2281 0.901341 74.4052 0.724216C74.6353 0.494108 74.9017 0.304102 75.2062 0.182678C75.7499 -0.0341727 76.4162 -0.0707622 76.9674 0.142387C76.9858 0.149569 77.0012 0.155123 77.0163 0.160604C77.0345 0.167173 77.0524 0.173638 77.0749 0.182678C77.4766 0.342797 77.9204 0.694563 78.1546 1.04975L78.3215 1.32614C78.4843 1.59691 78.5976 2.07488 78.5976 2.37919C78.5976 2.92673 78.5449 3.06455 78.3675 3.50514C78.354 3.53906 78.3438 3.55587 78.3298 3.57888C78.3257 3.58568 78.3213 3.59302 78.3163 3.6015C78.3076 3.6165 78.3003 3.63085 78.293 3.6453C78.2844 3.66222 78.2757 3.67928 78.2646 3.69768C78.0892 3.98887 77.831 4.28878 77.5504 4.47377C77.407 4.5684 77.2378 4.67193 77.0749 4.73667L76.7413 4.84634C76.3358 4.94097 75.9345 4.94481 75.5288 4.84362C75.3908 4.8093 75.2861 4.76585 75.173 4.71884C75.1476 4.7083 75.1217 4.69758 75.095 4.68674C74.8714 4.59637 74.5798 4.36992 74.4052 4.19509C74.3017 4.0916 74.2069 3.9914 74.1265 3.86955C73.9618 3.61982 73.9274 3.55521 73.8234 3.28636ZM74.5945 0.913663C74.1978 1.35116 73.9519 1.82046 73.9519 2.45958C73.9519 2.88087 74.1061 3.38198 74.3507 3.71248C74.3707 3.73955 74.3858 3.76043 74.3982 3.7777C74.4411 3.83728 74.453 3.8538 74.5328 3.93298C74.5487 3.94876 74.5668 3.968 74.5865 3.98892C74.6326 4.03777 74.6872 4.09577 74.7421 4.14018C74.8928 4.26198 75.0682 4.37741 75.2486 4.4526C75.8663 4.70988 76.4239 4.71817 77.0441 4.45086C77.1127 4.42116 77.1715 4.38823 77.2289 4.35352C77.3819 4.26137 77.5619 4.13282 77.6878 4.00681C77.7012 3.99344 77.7098 3.98176 77.7187 3.96957C77.7282 3.95659 77.7382 3.94302 77.7548 3.92624C77.9094 3.7709 78.0488 3.55484 78.1335 3.35153C78.4063 2.69662 78.4013 1.97946 78.0345 1.37121C77.9688 1.26253 77.8975 1.15112 77.815 1.05378C77.6186 0.821935 77.3129 0.580445 77.0346 0.464641C76.3901 0.196354 75.8696 0.212518 75.239 0.470593C75.1659 0.500481 75.1133 0.529007 75.0522 0.565593C74.9206 0.644623 74.6957 0.802076 74.5945 0.913663Z" fill="white"/>
<path d="M11.1098 38.6426H9.47831C9.56371 38.7066 9.56638 38.8692 9.48641 39.1304C9.40645 39.3917 9.17456 39.9169 8.79066 40.7059L7.01524 44.3686L5.20801 40.722C4.8347 39.9649 4.61096 39.4424 4.53615 39.1545C4.46157 38.8665 4.47759 38.696 4.58416 38.6426H0.457825C0.628391 38.7494 0.81765 38.9519 1.0256 39.2505C1.23355 39.549 1.5826 40.1461 2.07308 41.0417L5.63993 47.8073H5.8157L9.5743 41.0417C10.3313 39.6876 10.8432 38.8879 11.1098 38.6426Z" fill="white"/>
<path d="M97.5422 38.6426H96.1027C96.3267 39.0905 96.4386 40.6632 96.4386 43.361V43.9527L88.2656 38.6106L87.9618 38.5946L87.9778 42.9611C87.999 45.4773 87.8924 47.0502 87.6579 47.6793H89.0494C88.8468 47.2314 88.7454 45.6587 88.7454 42.9611V42.2572L96.9503 47.7273L97.1903 47.6793V43.361C97.1903 40.6846 97.3076 39.1119 97.5422 38.6426Z" fill="white"/>
<path fill-rule="evenodd" clip-rule="evenodd" d="M67.1582 39.7863C65.98 40.6659 65.3909 41.8415 65.3909 43.313C65.3909 44.7311 65.9399 45.8399 67.0383 46.6397C68.1365 47.4394 69.592 47.8393 71.4046 47.8393C73.324 47.8393 74.862 47.4046 76.019 46.5356C77.1759 45.6666 77.7543 44.4911 77.7543 43.0091C77.7543 41.5696 77.2158 40.4527 76.1388 39.6583C75.062 38.8639 73.6279 38.4666 71.8365 38.4666C69.8959 38.4666 68.3365 38.9066 67.1582 39.7863ZM69.5494 40.0981C70.0611 39.341 70.7276 38.9625 71.5486 38.9625C72.4336 38.9625 73.1266 39.3863 73.6279 40.2342C74.1291 41.0818 74.3796 42.1027 74.3796 43.297C74.3796 44.4698 74.1369 45.4375 73.6518 46.1999C73.1667 46.9621 72.5136 47.3434 71.6925 47.3434C70.8075 47.3434 70.1012 46.9116 69.5733 46.0478C69.0456 45.1842 68.7816 44.1553 68.7816 42.9611C68.7816 41.8095 69.0375 40.8551 69.5494 40.0981Z" fill="white"/>
<path d="M51.9366 47.6793H55.4713C55.2581 47.2422 55.1514 45.8187 55.1514 43.4088V42.9131C55.1514 40.5032 55.2581 39.0799 55.4713 38.6426H51.9366C52.1498 39.1119 52.2566 40.5352 52.2566 42.9131V43.4088C52.2566 45.7867 52.1498 47.2102 51.9366 47.6793Z" fill="white"/>
<path d="M36.291 40.1621C36.291 39.5224 36.8295 39.2025 37.9065 39.2025C38.5569 39.2025 39.138 39.309 39.6497 39.5224C40.2256 39.7676 40.7427 40.194 41.2012 40.8019L41.3772 40.7699L41.0253 39.0905C40.9293 39.0905 40.7801 39.0398 40.5775 38.9386C40.375 38.8372 40.063 38.7386 39.6419 38.6426C39.2207 38.5466 38.7009 38.4986 38.0824 38.4986C36.643 38.4986 35.5953 38.7494 34.9396 39.2505C34.2838 39.7515 33.9559 40.4234 33.9559 41.2657C33.9559 41.9267 34.1612 42.4573 34.5717 42.857C34.9822 43.2569 35.566 43.5848 36.323 43.8407L37.2346 44.1446C38.0451 44.4112 38.6609 44.6723 39.082 44.9283C39.5032 45.1842 39.7137 45.4988 39.7137 45.8719C39.7137 46.7143 39.0795 47.1354 37.8105 47.1354C37.0641 47.1354 36.355 46.9889 35.6834 46.6956C35.0115 46.4025 34.4784 45.9786 34.0839 45.4242L33.9399 45.4722L34.2279 47.2154C34.2384 47.2154 34.2652 47.2208 34.3079 47.2314C34.3505 47.2422 34.4225 47.2634 34.5237 47.2954C34.6251 47.3274 34.729 47.3594 34.8355 47.3914C35.8913 47.6899 36.8615 47.8393 37.7465 47.8393C39.2392 47.8393 40.3243 47.5806 41.0013 47.0635C41.6784 46.5464 42.017 45.7813 42.017 44.7683C42.017 43.5742 41.244 42.7051 39.6977 42.1613L38.9141 41.8735C37.9225 41.5216 37.2373 41.2285 36.8588 40.9937C36.4803 40.7592 36.291 40.482 36.291 40.1621Z" fill="white"/>
<path d="M20.3897 47.6793H23.9244C23.7112 47.2422 23.6044 45.8187 23.6044 43.4088V42.9131C23.6044 40.5032 23.7112 39.0799 23.9244 38.6426H20.3897C20.6029 39.1119 20.7096 40.5352 20.7096 42.9131V43.4088C20.7096 45.7867 20.6029 47.2102 20.3897 47.6793Z" fill="white"/>
<path fill-rule="evenodd" clip-rule="evenodd" d="M22.6207 60H22.3016V54.3186H24.1927C26.1309 54.3186 26.7809 54.9057 26.7809 55.8988C26.7809 56.9089 25.9299 57.4875 24.358 57.4875H22.6207V60ZM22.6207 54.5259V57.2975H24.3108C25.7762 57.2975 26.45 56.7966 26.45 55.9073C26.45 55.0179 25.9181 54.5259 24.1808 54.5259H22.6207Z" fill="white"/>
<path fill-rule="evenodd" clip-rule="evenodd" d="M34.924 60H34.6168V54.3186H36.685C38.4223 54.3186 39.0487 54.9748 39.0487 55.8123C39.0487 56.6153 38.5759 57.1766 37.264 57.332V57.3493L39.5451 60H39.1904L36.9449 57.3666H34.924V60ZM34.924 54.5259V57.1853H36.7086C38.2804 57.1853 38.7415 56.5548 38.7415 55.8123C38.7415 55.0699 38.2332 54.5259 36.6731 54.5259H34.924Z" fill="white"/>
<path d="M47.6645 60H47.3454V54.3186H47.6645V60Z" fill="white"/>
<path d="M56.3395 60H56.0322V54.3186H56.5168L59.4124 59.6806H59.4359L62.3434 54.3186H62.8279V60H62.5206V54.5777H62.4969L59.5659 60H59.2821L56.3395 54.5777V60Z" fill="white"/>
<path d="M75.6982 60H71.2074V54.3186H75.6982V54.5259H71.5265V56.9866H74.7292V57.1939H71.5265V59.8015H75.6982V60Z" fill="white"/>
</svg>
