<svg width="25" height="20" viewBox="0 0 25 20" fill="none" xmlns="http://www.w3.org/2000/svg">
<path d="M8.65792 9.45008C11.0782 9.45008 13.0585 7.46982 13.0585 5.0495C13.0585 2.62919 11.0782 0.648926 8.65792 0.648926C6.2376 0.648926 4.25734 2.62919 4.25734 5.0495C4.25734 7.46982 6.2376 9.45008 8.65792 9.45008ZM13.6086 8.45995C15.4788 10.0002 18.2292 9.67011 19.7694 7.79987C21.3096 5.92962 20.9795 3.17926 19.1093 1.63906C18.3392 0.978969 17.3491 0.648926 16.3589 0.648926C15.3688 0.648926 14.3787 0.978969 13.6086 1.63906C15.4788 3.17926 15.8089 5.81961 14.2687 7.79987C14.1586 8.01989 13.8286 8.23992 13.6086 8.45995ZM24.5 18.1412C23.8399 14.0707 20.4295 11.1003 16.3589 11.1003C15.3688 11.1003 14.4887 11.2103 13.6086 11.5404C16.4689 12.5305 18.5592 15.0608 18.9993 18.0312C19.1093 18.5813 18.6692 19.2414 18.0091 19.2414H17.8991H23.3999C24.0599 19.2414 24.5 18.8013 24.5 18.1412C24.5 18.1412 24.5 18.2512 24.5 18.1412ZM8.65792 11.1003C4.58738 11.1003 1.06692 14.0707 0.516848 18.1412C0.406834 18.6913 0.846891 19.3514 1.50698 19.3514H1.61699H15.6988C16.3589 19.3514 16.799 18.9113 16.799 18.2512V18.1412C16.2489 14.0707 12.7285 11.1003 8.65792 11.1003Z" fill="#A29061"/>
</svg>
